<svg width="64" height="64" viewBox="0 0 64 64" fill="none" xmlns="http://www.w3.org/2000/svg">
<g clip-path="url(#clip0_366_10473)">
<path d="M64 0H0V64H64V0Z" fill="url(#paint0_radial_366_10473)"/>
</g>
<path d="M31.5081 32.4561H32.4175V33.3117H31.5081V32.4561Z" fill="#DBB16D"/>
<line x1="31.584" y1="32.7843" x2="32.3153" y2="32.7843" stroke="#071B34" stroke-width="0.102511"/>
<line x1="31.584" y1="33.0408" x2="32.3153" y2="33.0408" stroke="#071B34" stroke-width="0.102511"/>
<g clip-path="url(#clip1_366_10473)">
<path d="M33.8138 22.8285C33.7337 22.9524 33.6478 23.0651 33.5601 23.165C33.5575 23.1686 33.5558 23.1727 33.5549 23.1771L32.7074 27.2913L32.6963 27.3451C32.6961 27.3461 32.6952 27.3468 32.6942 27.3468C32.6931 27.3468 32.6921 27.3477 32.6921 27.3489V33.6748C32.6921 33.679 32.6955 33.6824 32.6998 33.6824C32.704 33.6824 32.7074 33.6858 32.7074 33.69V34.8473C32.7074 34.8605 32.6967 34.8711 32.6835 34.8711H32.6726C32.6655 34.8711 32.6597 34.8769 32.6597 34.8841C32.6597 34.8912 32.6539 34.897 32.6468 34.897H32.3192C32.2059 34.897 32.1141 34.9888 32.1141 35.102V37.0282C32.1141 37.0519 32.0949 37.0711 32.0712 37.0711C32.0475 37.0711 32.0283 37.0519 32.0283 37.0282V35.102C32.0283 34.9888 31.9365 34.897 31.8233 34.897H31.4957C31.4885 34.897 31.4827 34.8912 31.4827 34.8841C31.4827 34.8769 31.4769 34.8711 31.4698 34.8711H31.4589C31.4457 34.8711 31.4351 34.8605 31.4351 34.8473V33.69C31.4351 33.6858 31.4385 33.6824 31.4427 33.6824C31.4469 33.6824 31.4503 33.679 31.4503 33.6748V27.3489C31.4503 27.3477 31.4494 27.3468 31.4482 27.3468C31.4472 27.3468 31.4464 27.3461 31.4462 27.3451L31.4351 27.2913L30.5876 23.1771C30.5867 23.1727 30.5849 23.1686 30.5824 23.165C30.4927 23.0651 30.4088 22.9524 30.3287 22.8285C30.3237 22.8213 30.321 22.8127 30.321 22.8039V22.8026L30.3478 22.5401L30.3554 22.4754L30.3573 22.4476L30.426 21.8154L30.4355 21.7359C30.4366 21.7284 30.443 21.7229 30.4505 21.7229H33.3819C33.5037 21.7229 33.5986 21.6175 33.5858 21.4965L33.5273 20.9396C33.5246 20.9139 33.4936 20.9053 33.4761 20.9243C33.5181 20.8744 33.5582 20.8171 33.5944 20.7542C33.5968 20.7501 33.6031 20.7515 33.6036 20.7562L33.705 21.7229L33.7069 21.7359L33.7165 21.8154L33.7852 22.4476L33.7871 22.4754L33.7947 22.5401L33.8214 22.8026V22.8039C33.8214 22.8127 33.8187 22.8213 33.8138 22.8285ZM33.167 24.5868C33.17 24.5714 33.1582 24.5571 33.1425 24.5571H33.019C33.0169 24.5571 33.0163 24.56 33.0183 24.5607L33.1271 24.6106C33.1436 24.6182 33.1628 24.6083 33.1663 24.5905L33.167 24.5868ZM32.6921 26.726C32.6921 26.7325 32.6959 26.7384 32.7019 26.7411C32.7116 26.7455 32.7228 26.7398 32.725 26.7294L32.8097 26.3215C32.8196 26.2741 32.7716 26.2354 32.7274 26.2551C32.7059 26.2647 32.6921 26.2859 32.6921 26.3094V26.726ZM32.6921 26.1556C32.6921 26.1619 32.6987 26.1661 32.7044 26.1634C32.7128 26.1595 32.71 26.147 32.7008 26.147C32.696 26.147 32.6921 26.1508 32.6921 26.1556ZM32.6921 25.9025C32.6921 25.9421 32.7154 25.978 32.7515 25.9942C32.8102 26.0204 32.878 25.9857 32.8909 25.9228L32.9877 25.4526C32.9922 25.4305 32.981 25.4081 32.9605 25.3985C32.9476 25.3925 32.9326 25.3924 32.9196 25.3983L32.8123 25.4471C32.7391 25.4804 32.6921 25.5534 32.6921 25.6337V25.9025ZM32.6921 25.3709C32.6921 25.3846 32.7063 25.3937 32.7188 25.3881C32.7373 25.3798 32.7313 25.352 32.711 25.352C32.7006 25.352 32.6921 25.3605 32.6921 25.3709ZM32.6921 25.0426C32.6921 25.1229 32.7391 25.1959 32.8123 25.2292L32.8386 25.2412C32.8653 25.2533 32.8942 25.2596 32.9235 25.2596H32.9919C32.998 25.2596 33.0041 25.2583 33.0097 25.256C33.0234 25.2501 33.0335 25.2379 33.0365 25.2232L33.1073 24.8789C33.1266 24.7848 33.0777 24.6897 32.9901 24.6504C32.9366 24.6264 32.8752 24.6263 32.8217 24.6503L32.813 24.6542C32.7394 24.6874 32.6921 24.7605 32.6921 24.8412V25.0426ZM32.6921 24.5766C32.6921 24.5908 32.7068 24.6002 32.7198 24.5943L32.7932 24.5607C32.7952 24.56 32.7947 24.5571 32.7925 24.5571H32.7096C32.6999 24.5571 32.6921 24.5649 32.6921 24.5745V24.5766ZM32.6921 24.3205C32.6921 24.3768 32.7249 24.4279 32.776 24.4514C32.7949 24.4601 32.8154 24.4646 32.8362 24.4646H32.9626C32.9918 24.4646 33.0206 24.4584 33.0472 24.4464L33.116 24.4152C33.1757 24.3882 33.2189 24.3342 33.2322 24.2701L33.2798 24.0403C33.3139 23.8761 33.1472 23.7427 32.9945 23.8119L32.8126 23.8943C32.7392 23.9275 32.6921 24.0005 32.6921 24.081V24.3205ZM32.6894 23.8139C32.6909 23.8139 32.6921 23.8151 32.6921 23.8166V23.8262C32.6921 23.8351 32.7014 23.8411 32.7095 23.8374L33.3566 23.5455C33.3742 23.5376 33.3868 23.5216 33.3906 23.5028C33.4024 23.4444 33.3287 23.4042 33.2836 23.4431C33.0976 23.6037 32.8965 23.7266 32.6884 23.8086C32.6857 23.8097 32.6865 23.8139 32.6894 23.8139ZM32.1141 34.5996C32.1141 34.7128 32.2059 34.8046 32.3192 34.8046H32.407C32.5202 34.8046 32.612 34.7128 32.612 34.5996V33.9336C32.612 33.8204 32.5202 33.7286 32.407 33.7286H32.3192C32.2059 33.7286 32.1141 33.8204 32.1141 33.9336V34.5996ZM32.1141 33.5078C32.1141 33.5787 32.1716 33.6362 32.2425 33.6362H32.5305C32.5671 33.6362 32.5968 33.6065 32.5968 33.5699C32.5968 33.5439 32.5815 33.5202 32.5578 33.5095L32.2954 33.3909C32.2104 33.3525 32.1141 33.4146 32.1141 33.5078ZM32.4244 33.3476C32.5052 33.3841 32.5968 33.325 32.5968 33.2363C32.5968 33.1474 32.5048 33.0883 32.424 33.1252C32.3285 33.1687 32.3287 33.3045 32.4244 33.3476ZM32.1141 33.0315C32.1141 33.0931 32.1778 33.1342 32.2339 33.1088L32.5929 32.9466H32.596C32.5964 32.9466 32.5968 32.9463 32.5968 32.9459C32.5968 32.9454 32.5962 32.945 32.5957 32.9453L32.5929 32.9466H32.199C32.1521 32.9466 32.1141 32.9846 32.1141 33.0315ZM32.1141 32.757C32.1141 32.8107 32.1576 32.8542 32.2113 32.8542H32.5788C32.5887 32.8542 32.5968 32.8461 32.5968 32.8362C32.5968 32.8291 32.5926 32.8227 32.5862 32.8198L32.2513 32.6685C32.187 32.6394 32.1141 32.6864 32.1141 32.757ZM32.424 32.6442C32.5048 32.681 32.5968 32.6219 32.5968 32.533C32.5968 32.4444 32.5052 32.3852 32.4244 32.4217C32.3287 32.4649 32.3285 32.6006 32.424 32.6442ZM32.1141 32.2806C32.1141 32.3649 32.2012 32.4211 32.278 32.3863L32.569 32.2548C32.5859 32.2471 32.5968 32.2303 32.5968 32.2118C32.5968 32.1857 32.5756 32.1646 32.5496 32.1646H32.2302C32.1661 32.1646 32.1141 32.2165 32.1141 32.2806ZM32.1141 31.9656C32.1141 32.0244 32.1619 32.0722 32.2207 32.0722H32.5642C32.5822 32.0722 32.5968 32.0576 32.5968 32.0396C32.5968 32.0268 32.5893 32.0152 32.5776 32.0099L32.2646 31.8684C32.1941 31.8365 32.1141 31.8881 32.1141 31.9656ZM32.424 31.8381C32.5048 31.875 32.5968 31.8159 32.5968 31.727C32.5968 31.6383 32.5052 31.5792 32.4244 31.6157C32.3287 31.6589 32.3285 31.7946 32.424 31.8381ZM32.1141 31.4892C32.1141 31.5666 32.1941 31.6182 32.2646 31.5863L32.5776 31.4449C32.5893 31.4396 32.5968 31.428 32.5968 31.4152C32.5968 31.3972 32.5822 31.3826 32.5642 31.3826H32.2207C32.1619 31.3826 32.1141 31.4303 32.1141 31.4892ZM32.1141 31.201C32.1141 31.2502 32.1541 31.2901 32.2033 31.2901H32.5946C32.5998 31.2901 32.6014 31.2832 32.5968 31.2809L32.2401 31.1197C32.181 31.093 32.1141 31.1362 32.1141 31.201ZM32.424 31.1005C32.5048 31.1373 32.5968 31.0782 32.5968 30.9893C32.5968 30.9007 32.5052 30.8415 32.4244 30.878C32.3287 30.9212 32.3285 31.0569 32.424 31.1005ZM32.1141 30.7246C32.1141 30.8146 32.2071 30.8747 32.2892 30.8376L32.5617 30.7144C32.5831 30.7047 32.5968 30.6835 32.5968 30.6601C32.5968 30.6272 32.5701 30.6006 32.5372 30.6006H32.2381C32.1697 30.6006 32.1141 30.6561 32.1141 30.7246ZM32.1141 30.4001C32.1141 30.4598 32.1625 30.5081 32.2222 30.5081H32.5619C32.5812 30.5081 32.5968 30.4925 32.5968 30.4733C32.5968 30.4596 32.5887 30.4472 32.5763 30.4416L32.2667 30.3016C32.1952 30.2693 32.1141 30.3216 32.1141 30.4001ZM32.4244 30.2713C32.5052 30.3078 32.5968 30.2487 32.5968 30.16C32.5968 30.0712 32.5048 30.012 32.424 30.0489C32.3285 30.0924 32.3287 30.2282 32.4244 30.2713ZM32.1141 29.9237C32.1141 30.0001 32.193 30.051 32.2626 30.0195L32.5789 29.8765C32.5898 29.8716 32.5968 29.8608 32.5968 29.8489C32.5968 29.8321 32.5832 29.8186 32.5664 29.8186H32.2193C32.1612 29.8186 32.1141 29.8656 32.1141 29.9237ZM32.1141 29.6442C32.1141 29.6894 32.1508 29.7261 32.1961 29.7261H32.5758L32.5916 29.7331C32.594 29.7342 32.5968 29.7324 32.5968 29.7298C32.5968 29.7277 32.5951 29.7261 32.5931 29.7261H32.5758L32.2298 29.5696C32.1756 29.545 32.1141 29.5847 32.1141 29.6442ZM32.4244 29.5559C32.5052 29.5924 32.5968 29.5332 32.5968 29.4446C32.5968 29.3557 32.5048 29.2966 32.424 29.3334C32.3285 29.377 32.3287 29.5127 32.4244 29.5559ZM32.1141 29.2217C32.1141 29.2918 32.1865 29.3385 32.2503 29.3096L32.5868 29.1575C32.5929 29.1548 32.5968 29.1488 32.5968 29.1421C32.5968 29.1328 32.5892 29.1253 32.5799 29.1253H32.2106C32.1573 29.1253 32.1141 29.1685 32.1141 29.2217ZM32.1141 28.9429C32.1141 28.9926 32.1544 29.0328 32.2041 29.0328H32.6216L32.6354 29.0403C32.6373 29.0413 32.6396 29.0407 32.6407 29.0389C32.6423 29.0363 32.6404 29.0328 32.6373 29.0328H32.6216L32.5968 29.0217L32.2411 28.861C32.1816 28.8341 32.1141 28.8776 32.1141 28.9429ZM32.4244 28.8423C32.5052 28.8787 32.5968 28.8196 32.5968 28.731C32.5968 28.6421 32.5048 28.583 32.424 28.6198C32.3285 28.6634 32.3287 28.7991 32.4244 28.8423ZM32.1141 28.5205C32.1141 28.5847 32.1805 28.6276 32.2391 28.6011L32.5968 28.4394C32.6005 28.4376 32.5992 28.432 32.5951 28.432H32.2026C32.1538 28.432 32.1141 28.4716 32.1141 28.5205ZM32.1141 28.2446C32.1141 28.297 32.1567 28.3396 32.2091 28.3396H32.5821C32.5902 28.3396 32.5968 28.333 32.5968 28.325C32.5968 28.3192 32.5934 28.314 32.5882 28.3116L32.2483 28.158C32.1854 28.1296 32.1141 28.1756 32.1141 28.2446ZM32.4244 28.136C32.5052 28.1725 32.5968 28.1134 32.5968 28.0247C32.5968 27.9359 32.5048 27.8767 32.424 27.9136C32.3285 27.9571 32.3287 28.0929 32.4244 28.136ZM32.1141 27.8221C32.1141 27.8826 32.1767 27.923 32.2319 27.898L32.5834 27.7387H32.5945C32.5958 27.7387 32.5968 27.7377 32.5968 27.7365C32.5968 27.7349 32.5951 27.7338 32.5937 27.7345L32.5834 27.7387H32.1975C32.1515 27.7387 32.1141 27.776 32.1141 27.8221ZM32.1141 27.5216C32.1141 27.5904 32.17 27.6463 32.2389 27.6463H32.5361C32.5696 27.6463 32.5968 27.6191 32.5968 27.5856C32.5968 27.5618 32.5828 27.5401 32.5611 27.5303L32.2902 27.4079C32.2077 27.3706 32.1141 27.431 32.1141 27.5216ZM32.4244 27.367C32.5052 27.4035 32.5968 27.3443 32.5968 27.2557C32.5968 27.1668 32.5048 27.1077 32.424 27.1445C32.3285 27.1881 32.3287 27.3238 32.4244 27.367ZM32.1141 27.0362C32.1141 27.1047 32.1848 27.1503 32.2472 27.1221L32.5888 26.9677C32.5936 26.9655 32.5968 26.9607 32.5968 26.9554C32.5968 26.948 32.5907 26.9419 32.5833 26.9419H32.2084C32.1563 26.9419 32.1141 26.9841 32.1141 27.0362ZM32.1141 26.7424C32.1141 26.8015 32.1621 26.8495 32.2212 26.8495H32.5641C32.5821 26.8495 32.5968 26.8349 32.5968 26.8169C32.5968 26.8041 32.5893 26.7925 32.5777 26.7872L32.2657 26.6449C32.1947 26.6126 32.1141 26.6644 32.1141 26.7424ZM32.4235 26.6152C32.5046 26.6522 32.5968 26.5929 32.5968 26.5038C32.5968 26.4146 32.5046 26.3554 32.4235 26.3923C32.3279 26.4359 32.3279 26.5717 32.4235 26.6152ZM32.1141 26.2579C32.1141 26.3385 32.1974 26.3922 32.2708 26.359L32.5736 26.2221C32.5877 26.2158 32.5968 26.2017 32.5968 26.1863C32.5968 26.1646 32.5791 26.147 32.5574 26.147H32.2251C32.1638 26.147 32.1141 26.1966 32.1141 26.2579ZM32.1141 25.9576C32.1141 26.0111 32.1576 26.0545 32.2111 26.0545H32.5799C32.5892 26.0545 32.5968 26.047 32.5968 26.0376C32.5968 26.031 32.5929 26.025 32.5869 26.0223L32.2513 25.8693C32.1871 25.8401 32.1141 25.887 32.1141 25.9576ZM32.4249 25.8457C32.5055 25.8821 32.5968 25.8231 32.5968 25.7347C32.5968 25.6463 32.5055 25.5873 32.4249 25.6237C32.3293 25.6668 32.3293 25.8025 32.4249 25.8457ZM32.1141 25.4738C32.1141 25.5623 32.2055 25.6213 32.2861 25.5848L32.5637 25.4594C32.5838 25.4503 32.5968 25.4303 32.5968 25.4082C32.5968 25.3772 32.5716 25.352 32.5406 25.352H32.236C32.1687 25.352 32.1141 25.4066 32.1141 25.4738ZM32.1141 25.1633C32.1141 25.2165 32.1572 25.2596 32.2104 25.2596H32.581C32.5897 25.2596 32.5968 25.2525 32.5968 25.2438C32.5968 25.2376 32.5931 25.232 32.5875 25.2295L32.2503 25.0758C32.1866 25.0467 32.1141 25.0933 32.1141 25.1633ZM32.424 25.0533C32.5048 25.0901 32.5968 25.031 32.5968 24.9421C32.5968 24.8535 32.5052 24.7943 32.4244 24.8308C32.3287 24.874 32.3285 25.0097 32.424 25.0533ZM32.1141 24.6796C32.1141 24.7686 32.2061 24.8279 32.2872 24.7913L32.5631 24.6666C32.5836 24.6573 32.5968 24.6369 32.5968 24.6144C32.5968 24.5827 32.5711 24.5571 32.5395 24.5571H32.2367C32.169 24.5571 32.1141 24.6119 32.1141 24.6796ZM32.1141 24.382C32.1141 24.4276 32.1511 24.4646 32.1968 24.4646H32.5796L32.5927 24.4702C32.5946 24.4711 32.5968 24.4697 32.5968 24.4676C32.5968 24.4659 32.5954 24.4646 32.5938 24.4646H32.5796L32.2309 24.3067C32.1762 24.2819 32.1141 24.3219 32.1141 24.382ZM32.4245 24.2922C32.5052 24.3288 32.5968 24.2698 32.5968 24.1812C32.5968 24.0924 32.5048 24.0334 32.4241 24.0704C32.3291 24.1139 32.3293 24.2491 32.4245 24.2922ZM32.1141 23.9966C32.1141 24.0487 32.168 24.0835 32.2155 24.062L32.5832 23.8958C32.5914 23.8921 32.5968 23.8838 32.5968 23.8748C32.5968 23.8582 32.5797 23.8468 32.564 23.8521C32.5577 23.8542 32.5515 23.8562 32.5452 23.8582C32.4252 23.8939 32.3052 23.9153 32.184 23.9234C32.1452 23.926 32.1141 23.9577 32.1141 23.9966ZM32.0665 28.7833C32.0665 28.7841 32.0673 28.7847 32.0681 28.7843C32.069 28.7839 32.069 28.7826 32.0681 28.7822C32.0673 28.7818 32.0665 28.7824 32.0665 28.7833ZM31.5304 34.5996C31.5304 34.7128 31.6222 34.8046 31.7355 34.8046H31.8233C31.9365 34.8046 32.0283 34.7128 32.0283 34.5996V33.9336C32.0283 33.8204 31.9365 33.7286 31.8233 33.7286H31.7355C31.6222 33.7286 31.5304 33.8204 31.5304 33.9336V34.5996ZM31.8778 31.5863C31.9484 31.6182 32.0283 31.5666 32.0283 31.4892C32.0283 31.4303 31.9806 31.3826 31.9217 31.3826H31.5783C31.5603 31.3826 31.5457 31.3972 31.5457 31.4152C31.5457 31.428 31.5532 31.4396 31.5649 31.4449L31.8778 31.5863ZM31.7181 31.6157C31.6372 31.5792 31.5457 31.6383 31.5457 31.727C31.5457 31.8159 31.6376 31.875 31.7185 31.8381C31.814 31.7946 31.8137 31.6589 31.7181 31.6157ZM31.5649 32.0099C31.5532 32.0152 31.5457 32.0268 31.5457 32.0396C31.5457 32.0576 31.5603 32.0722 31.5783 32.0722H31.9217C31.9806 32.0722 32.0283 32.0244 32.0283 31.9656C32.0283 31.8881 31.9484 31.8365 31.8778 31.8684L31.5649 32.0099ZM31.5929 32.1646C31.5668 32.1646 31.5457 32.1857 31.5457 32.2118C31.5457 32.2303 31.5566 32.2471 31.5734 32.2548L31.8645 32.3863C31.9413 32.4211 32.0283 32.3649 32.0283 32.2806C32.0283 32.2165 31.9764 32.1646 31.9123 32.1646H31.5929ZM31.7181 32.4217C31.6372 32.3852 31.5457 32.4444 31.5457 32.533C31.5457 32.6219 31.6376 32.681 31.7185 32.6442C31.814 32.6006 31.8137 32.4649 31.7181 32.4217ZM31.5563 32.8198C31.5498 32.8227 31.5457 32.8291 31.5457 32.8362C31.5457 32.8461 31.5537 32.8542 31.5637 32.8542H31.9311C31.9848 32.8542 32.0283 32.8107 32.0283 32.757C32.0283 32.6864 31.9554 32.6394 31.8911 32.6685L31.5563 32.8198ZM31.5495 32.9466L31.5467 32.9453C31.5462 32.945 31.5457 32.9454 31.5457 32.9459C31.5457 32.9463 31.546 32.9466 31.5464 32.9466H31.5495L31.9085 33.1088C31.9647 33.1342 32.0283 33.0931 32.0283 33.0315C32.0283 32.9846 31.9903 32.9466 31.9434 32.9466H31.5495ZM31.7185 33.1252C31.6376 33.0883 31.5457 33.1474 31.5457 33.2363C31.5457 33.325 31.6372 33.3841 31.7181 33.3476C31.8137 33.3045 31.814 33.1687 31.7185 33.1252ZM31.5847 33.5095C31.5609 33.5202 31.5457 33.5439 31.5457 33.5699C31.5457 33.6065 31.5754 33.6362 31.612 33.6362H31.9C31.9708 33.6362 32.0283 33.5787 32.0283 33.5078C32.0283 33.4146 31.932 33.3525 31.8471 33.3909L31.5847 33.5095ZM31.9408 31.2901C31.9891 31.2901 32.0283 31.2503 32.0283 31.202C32.0283 31.1372 31.9614 31.093 31.9024 31.1197L31.5457 31.2809C31.5409 31.283 31.5424 31.2901 31.5476 31.2901H31.9408ZM31.8921 29.3096C31.956 29.3385 32.0283 29.2918 32.0283 29.2217C32.0283 29.1685 31.9851 29.1253 31.9319 29.1253H31.5625C31.5532 29.1253 31.5457 29.1328 31.5457 29.1421C31.5457 29.1488 31.5496 29.1548 31.5556 29.1575L31.8921 29.3096ZM31.7185 29.3334C31.6376 29.2966 31.5457 29.3557 31.5457 29.4446C31.5457 29.5332 31.6372 29.5924 31.7181 29.5559C31.8137 29.5127 31.814 29.377 31.7185 29.3334ZM31.5667 29.7261H31.5493C31.5473 29.7261 31.5457 29.7277 31.5457 29.7298C31.5457 29.7324 31.5484 29.7342 31.5508 29.7331L31.5667 29.7261H31.9464C31.9916 29.7261 32.0283 29.6894 32.0283 29.6442C32.0283 29.5847 31.9668 29.545 31.9126 29.5696L31.5667 29.7261ZM31.576 29.8186C31.5593 29.8186 31.5457 29.8321 31.5457 29.8489C31.5457 29.8608 31.5527 29.8716 31.5635 29.8765L31.8799 30.0195C31.9494 30.051 32.0283 30.0001 32.0283 29.9237C32.0283 29.8656 31.9812 29.8186 31.9232 29.8186H31.576ZM31.7185 30.0489C31.6376 30.012 31.5457 30.0712 31.5457 30.16C31.5457 30.2487 31.6372 30.3078 31.7181 30.2713C31.8137 30.2282 31.814 30.0924 31.7185 30.0489ZM31.5662 30.4416C31.5537 30.4472 31.5457 30.4596 31.5457 30.4733C31.5457 30.4925 31.5613 30.5081 31.5805 30.5081H31.9203C31.9799 30.5081 32.0283 30.4598 32.0283 30.4001C32.0283 30.3216 31.9473 30.2693 31.8758 30.3016L31.5662 30.4416ZM31.6052 30.6006C31.5724 30.6006 31.5457 30.6272 31.5457 30.6601C31.5457 30.6835 31.5594 30.7047 31.5807 30.7144L31.8532 30.8376C31.9353 30.8747 32.0283 30.8146 32.0283 30.7246C32.0283 30.6561 31.9728 30.6006 31.9043 30.6006H31.6052ZM31.7181 30.878C31.6372 30.8415 31.5457 30.9007 31.5457 30.9893C31.5457 31.0782 31.6376 31.1373 31.7185 31.1005C31.814 31.0569 31.8137 30.9212 31.7181 30.878ZM31.939 29.0328C31.9883 29.0328 32.0283 28.9926 32.0283 28.9433C32.0283 28.878 31.9609 28.8341 31.9013 28.861L31.5457 29.0217C31.54 29.0243 31.5418 29.0328 31.5481 29.0328H31.939ZM31.5648 26.7872C31.5532 26.7925 31.5457 26.8041 31.5457 26.8169C31.5457 26.8349 31.5603 26.8495 31.5783 26.8495H31.9212C31.9804 26.8495 32.0283 26.8015 32.0283 26.7424C32.0283 26.6644 31.9477 26.6126 31.8768 26.6449L31.5648 26.7872ZM31.719 26.6152C31.8145 26.5717 31.8145 26.4359 31.719 26.3923C31.6379 26.3554 31.5457 26.4146 31.5457 26.5038C31.5457 26.5929 31.6379 26.6522 31.719 26.6152ZM31.5592 26.9419C31.5517 26.9419 31.5457 26.948 31.5457 26.9554C31.5457 26.9607 31.5488 26.9655 31.5536 26.9677L31.8952 27.1221C31.9576 27.1503 32.0283 27.1047 32.0283 27.0362C32.0283 26.9841 31.9861 26.9419 31.934 26.9419H31.5592ZM31.7183 27.1448C31.6376 27.1079 31.5457 27.1669 31.5457 27.2557C31.5457 27.3443 31.6372 27.4033 31.7179 27.3667C31.8131 27.3235 31.8134 27.1884 31.7183 27.1448ZM31.5814 27.5303C31.5597 27.5401 31.5457 27.5618 31.5457 27.5856C31.5457 27.6191 31.5729 27.6463 31.6064 27.6463H31.9036C31.9725 27.6463 32.0283 27.5904 32.0283 27.5216C32.0283 27.431 31.9348 27.3706 31.8522 27.4079L31.5814 27.5303ZM31.559 27.7387L31.5488 27.7345C31.5473 27.7338 31.5457 27.7349 31.5457 27.7365C31.5457 27.7377 31.5467 27.7387 31.5479 27.7387H31.559L31.9106 27.898C31.9657 27.923 32.0283 27.8826 32.0283 27.8221C32.0283 27.776 31.991 27.7387 31.945 27.7387H31.559ZM31.7185 27.9136C31.6376 27.8767 31.5457 27.9359 31.5457 28.0247C31.5457 28.1134 31.6372 28.1725 31.7181 28.136C31.8137 28.0929 31.814 27.9571 31.7185 27.9136ZM31.5543 28.3116C31.5491 28.314 31.5457 28.3192 31.5457 28.325C31.5457 28.333 31.5522 28.3396 31.5603 28.3396H31.9333C31.9858 28.3396 32.0283 28.297 32.0283 28.2446C32.0283 28.1756 31.9571 28.1296 31.8942 28.158L31.5543 28.3116ZM31.5474 28.432C31.5433 28.432 31.542 28.4376 31.5457 28.4394L31.9034 28.6011C31.962 28.6276 32.0283 28.5847 32.0283 28.5205C32.0283 28.4716 31.9887 28.432 31.9398 28.432H31.5474ZM31.7185 28.6198C31.6376 28.583 31.5457 28.6421 31.5457 28.731C31.5457 28.8196 31.6372 28.8787 31.7181 28.8423C31.8137 28.7991 31.814 28.6634 31.7185 28.6198ZM31.5457 26.2117L31.8717 26.359C31.9451 26.3922 32.0283 26.3382 32.0283 26.2576C32.0283 26.1966 31.9789 26.147 31.9179 26.147H31.4551C31.4425 26.147 31.4389 26.164 31.4503 26.1692L31.5457 26.2117ZM31.927 24.062C31.9745 24.0835 32.0283 24.0487 32.0283 23.9966C32.0283 23.9577 31.9973 23.926 31.9584 23.9234C31.8368 23.9153 31.7157 23.8939 31.5972 23.8582C31.5905 23.8563 31.5843 23.8544 31.5784 23.8523C31.5627 23.847 31.5457 23.8582 31.5457 23.8748C31.5457 23.8838 31.551 23.8921 31.5593 23.8958L31.927 24.062ZM31.7183 24.0704C31.6376 24.0334 31.5457 24.0924 31.5457 24.1812C31.5457 24.2698 31.6372 24.3288 31.7179 24.2922C31.8131 24.2491 31.8134 24.1139 31.7183 24.0704ZM31.5629 24.4646H31.5486C31.547 24.4646 31.5457 24.4659 31.5457 24.4676C31.5457 24.4697 31.5479 24.4711 31.5498 24.4702L31.5629 24.4646H31.9457C31.9913 24.4646 32.0283 24.4276 32.0283 24.382C32.0283 24.3219 31.9663 24.2819 31.9116 24.3067L31.5629 24.4646ZM31.603 24.5571C31.5713 24.5571 31.5457 24.5827 31.5457 24.6144C31.5457 24.6369 31.5589 24.6573 31.5794 24.6666L31.8553 24.7913C31.9364 24.8279 32.0283 24.7686 32.0283 24.6796C32.0283 24.6119 31.9734 24.5571 31.9058 24.5571H31.603ZM31.7179 24.8311C31.6372 24.7945 31.5457 24.8535 31.5457 24.9421C31.5457 25.0309 31.6376 25.0899 31.7183 25.053C31.8134 25.0094 31.8131 24.8743 31.7179 24.8311ZM31.5549 25.2295C31.5493 25.232 31.5457 25.2376 31.5457 25.2438C31.5457 25.2525 31.5527 25.2596 31.5614 25.2596H31.9321C31.9852 25.2596 32.0283 25.2165 32.0283 25.1633C32.0283 25.0933 31.9559 25.0467 31.8921 25.0758L31.5549 25.2295ZM31.6019 25.352C31.5708 25.352 31.5457 25.3772 31.5457 25.4082C31.5457 25.4303 31.5586 25.4503 31.5787 25.4594L31.8563 25.5848C31.9369 25.6213 32.0283 25.5623 32.0283 25.4738C32.0283 25.4066 31.9738 25.352 31.9065 25.352H31.6019ZM31.7174 25.624C31.637 25.5875 31.5457 25.6463 31.5457 25.7347C31.5457 25.823 31.637 25.8819 31.7174 25.8454C31.8126 25.8023 31.8126 25.6671 31.7174 25.624ZM31.5556 26.0223C31.5496 26.025 31.5457 26.031 31.5457 26.0376C31.5457 26.047 31.5533 26.0545 31.5626 26.0545H31.9313C31.9849 26.0545 32.0283 26.0111 32.0283 25.9576C32.0283 25.887 31.9553 25.8401 31.8911 25.8693L31.5556 26.0223ZM31.4175 26.7294C31.4197 26.7398 31.4309 26.7455 31.4406 26.7411C31.4465 26.7384 31.4503 26.7325 31.4503 26.726V26.3094C31.4503 26.2859 31.4365 26.2647 31.4151 26.2551C31.3708 26.2354 31.3229 26.2741 31.3327 26.3215L31.4175 26.7294ZM31.2724 26.0472C31.2686 26.0489 31.2698 26.0545 31.2739 26.0545C31.2764 26.0545 31.2782 26.0523 31.2777 26.0499L31.2767 26.0453L31.329 26.0219C31.4028 25.9889 31.4503 25.9156 31.4503 25.8347V25.6337C31.4503 25.5534 31.4033 25.4804 31.3302 25.4471L31.223 25.3984C31.2099 25.3924 31.1948 25.3924 31.1817 25.3983C31.1603 25.408 31.1485 25.4312 31.1533 25.4541L31.2767 26.0453L31.2724 26.0472ZM31.4237 25.3881C31.4362 25.3937 31.4503 25.3846 31.4503 25.3709C31.4503 25.3605 31.4419 25.352 31.4314 25.352C31.4111 25.352 31.4051 25.3798 31.4237 25.3881ZM31.1063 25.225C31.1091 25.2386 31.1183 25.25 31.1309 25.2557C31.1365 25.2583 31.1426 25.2596 31.1487 25.2596H31.2189C31.2482 25.2596 31.2772 25.2533 31.3038 25.2412L31.3302 25.2292C31.4034 25.1959 31.4503 25.1229 31.4503 25.0426V24.8412C31.4503 24.7605 31.403 24.6874 31.3294 24.6542L31.3207 24.6503C31.2673 24.6263 31.2058 24.6264 31.1524 24.6504C31.0648 24.6897 31.0158 24.7848 31.0351 24.8789L31.1063 25.225ZM31.4227 24.5943C31.4356 24.6002 31.4503 24.5908 31.4503 24.5766V24.5745C31.4503 24.5649 31.4425 24.5571 31.4329 24.5571H31.3499C31.3478 24.5571 31.3472 24.56 31.3492 24.5607L31.4227 24.5943ZM30.9761 24.5905C30.9796 24.6083 30.9989 24.6182 31.0154 24.6106L31.1241 24.5607C31.1261 24.56 31.1255 24.5571 31.1234 24.5571H31C30.9842 24.5571 30.9724 24.5714 30.9754 24.5868L30.9761 24.5905ZM30.9103 24.2701C30.9236 24.3342 30.9668 24.3882 31.0265 24.4152L31.0953 24.4464C31.1218 24.4584 31.1507 24.4646 31.1798 24.4646H31.3044C31.3251 24.4646 31.3456 24.4602 31.3645 24.4517C31.4168 24.428 31.4503 24.376 31.4503 24.3187V24.081C31.4503 24.0005 31.4032 23.9275 31.3299 23.8943L31.148 23.8119C30.9952 23.7427 30.8286 23.8761 30.8626 24.0403L30.9103 24.2701ZM30.7517 23.5032C30.7556 23.5218 30.7681 23.5375 30.7855 23.5453L31.4329 23.8374C31.4411 23.8411 31.4503 23.8351 31.4503 23.8262V23.8166C31.4503 23.8151 31.4515 23.8139 31.453 23.8139C31.456 23.8139 31.4568 23.8097 31.454 23.8086C31.2459 23.7266 31.0449 23.6037 30.858 23.4432C30.8129 23.4045 30.7395 23.445 30.7517 23.5032ZM33.6391 21.9983C33.6278 21.8942 33.5399 21.8154 33.4352 21.8154H30.7059C30.601 21.8154 30.513 21.8946 30.502 21.9989L30.4785 22.2211C30.4657 22.3422 30.5606 22.4476 30.6824 22.4476H33.4594C33.5814 22.4476 33.6764 22.3418 33.6632 22.2205L33.6391 21.9983ZM33.7166 22.7217C33.7057 22.6185 33.6186 22.5401 33.5147 22.5401H30.6249C30.5216 22.5401 30.4349 22.6181 30.4241 22.7208C30.4191 22.7677 30.4306 22.815 30.4574 22.8537C30.5246 22.9502 30.5935 23.0389 30.6663 23.1187L30.6778 23.1335C30.9563 23.4497 31.2844 23.6697 31.6239 23.7695C31.7708 23.812 31.9196 23.8342 32.0665 23.8342H32.076C32.2229 23.8342 32.3717 23.812 32.5185 23.7695C32.8581 23.6697 33.1862 23.4497 33.4647 23.1335L33.4761 23.1187C33.5475 23.0388 33.6175 22.95 33.6841 22.8532C33.7105 22.8148 33.7214 22.7681 33.7166 22.7217Z" fill="#DBB16D"/>
</g>
<g filter="url(#filter0_d_366_10473)">
<path d="M30.657 23.7055C30.657 23.4224 30.8865 23.193 31.1695 23.193H33.2661V25.8086H30.657V23.7055Z" fill="url(#paint1_radial_366_10473)"/>
</g>
<path d="M30.5042 22.4647C30.2345 22.409 29.9571 22.1855 29.6276 22.1626C29.6232 22.1408 29.4123 20.3472 29.409 20.3254C29.3971 20.2589 29.3851 20.1945 29.3731 20.1323C29.3579 20.0494 29.3427 19.972 29.3286 19.8989C29.3286 19.8956 29.3275 19.8935 29.3275 19.8902C29.2013 19.2084 29.0828 18.5954 28.9751 18.0576C29.4145 18.8168 30.2921 20.3352 30.2921 20.3352C30.2921 20.3352 30.4934 22.4036 30.5042 22.4647Z" fill="#C69147"/>
<path d="M30.8928 25.107C30.8928 24.9547 31.0163 24.8312 31.1687 24.8312C31.321 24.8312 31.4446 24.9547 31.4446 25.107V25.8086H30.8928V25.107Z" fill="#C4944F"/>
<path d="M31.6807 25.107C31.6807 24.9547 31.8042 24.8312 31.9565 24.8312C32.1089 24.8312 32.2324 24.9547 32.2324 25.107V25.8086H31.6807V25.107Z" fill="#C4944F"/>
<path d="M32.4683 25.107C32.4683 24.9547 32.5918 24.8312 32.7441 24.8312C32.8965 24.8312 33.02 24.9547 33.02 25.107V25.8086H32.4683V25.107Z" fill="#C4944F"/>
<path d="M33.4496 22.4543C33.7193 22.3986 33.9731 22.1855 34.3026 22.1626C34.3069 22.1408 34.5179 20.3472 34.5211 20.3254C34.5331 20.2589 34.5451 20.1945 34.557 20.1323C34.5723 20.0494 34.5875 19.972 34.6016 19.8989C34.6016 19.8956 34.6027 19.8935 34.6027 19.8902C34.7289 19.2084 34.8474 18.5954 34.9551 18.0576C34.5157 18.8168 33.6381 20.3352 33.6381 20.3352C33.6381 20.3352 33.4604 22.3932 33.4496 22.4543Z" fill="#C69147"/>
<g clip-path="url(#clip2_366_10473)">
<path d="M34.0303 26.3855C33.9502 26.2616 33.8644 26.1488 33.7766 26.049C33.7741 26.0453 33.7723 26.0412 33.7714 26.0369L32.9239 21.9226L32.9128 21.8688C32.9126 21.8679 32.9118 21.8672 32.9108 21.8672C32.9096 21.8672 32.9087 21.8662 32.9087 21.8651V15.5392C32.9087 15.535 32.9121 15.5316 32.9163 15.5316C32.9205 15.5316 32.9239 15.5281 32.9239 15.5239V14.3667C32.9239 14.3535 32.9133 14.3428 32.9001 14.3428H32.8892C32.8821 14.3428 32.8763 14.337 32.8763 14.3299C32.8763 14.3227 32.8705 14.3169 32.8633 14.3169H32.5357C32.4225 14.3169 32.3307 14.2251 32.3307 14.1119V12.1857C32.3307 12.162 32.3115 12.1428 32.2878 12.1428C32.2641 12.1428 32.2449 12.162 32.2449 12.1857V14.1119C32.2449 14.2251 32.1531 14.3169 32.0398 14.3169H31.7122C31.7051 14.3169 31.6993 14.3227 31.6993 14.3299C31.6993 14.337 31.6935 14.3428 31.6864 14.3428H31.6755C31.6623 14.3428 31.6516 14.3535 31.6516 14.3667V15.5239C31.6516 15.5281 31.655 15.5316 31.6592 15.5316C31.6635 15.5316 31.6669 15.535 31.6669 15.5392V21.8651C31.6669 21.8662 31.6659 21.8672 31.6648 21.8672C31.6638 21.8672 31.6629 21.8679 31.6627 21.8688L31.6516 21.9226L30.8041 26.0369C30.8032 26.0412 30.8015 26.0453 30.7989 26.049C30.7093 26.1488 30.6253 26.2616 30.5452 26.3855C30.5403 26.3927 30.5376 26.4013 30.5376 26.41V26.4114L30.5643 26.6739L30.5719 26.7386L30.5738 26.7663L30.6425 27.3986L30.6521 27.4781C30.6531 27.4855 30.6595 27.491 30.667 27.491H33.5985C33.7202 27.491 33.8151 27.5964 33.8024 27.7175L33.7438 28.2744C33.7411 28.3 33.7101 28.3087 33.6927 28.2897C33.7347 28.3396 33.7747 28.3969 33.811 28.4598C33.8134 28.4639 33.8197 28.4625 33.8202 28.4578L33.9216 27.491L33.9235 27.4781L33.933 27.3986L34.0017 26.7663L34.0036 26.7386L34.0112 26.6739L34.038 26.4114V26.41C34.038 26.4013 34.0353 26.3927 34.0303 26.3855ZM33.3836 24.6271C33.3866 24.6426 33.3748 24.6569 33.359 24.6569H33.2356C33.2335 24.6569 33.2329 24.654 33.2349 24.6532L33.3436 24.6034C33.3601 24.5958 33.3794 24.6057 33.3829 24.6235L33.3836 24.6271ZM32.9087 22.488C32.9087 22.4814 32.9125 22.4755 32.9184 22.4728C32.9281 22.4685 32.9394 22.4742 32.9415 22.4846L33.0263 22.8925C33.0361 22.9399 32.9882 22.9785 32.9439 22.9588C32.9225 22.9493 32.9087 22.928 32.9087 22.9046V22.488ZM32.9087 23.0584C32.9087 23.052 32.9152 23.0479 32.921 23.0505C32.9294 23.0544 32.9266 23.067 32.9173 23.067C32.9125 23.067 32.9087 23.0631 32.9087 23.0584ZM32.9087 23.3114C32.9087 23.2718 32.932 23.2359 32.9681 23.2197C33.0267 23.1935 33.0945 23.2283 33.1075 23.2912L33.2042 23.7613C33.2088 23.7835 33.1975 23.8059 33.1771 23.8154C33.1641 23.8215 33.1492 23.8216 33.1362 23.8156L33.0288 23.7668C32.9557 23.7336 32.9087 23.6606 32.9087 23.5802V23.3114ZM32.9087 23.8431C32.9087 23.8294 32.9228 23.8202 32.9353 23.8259C32.9539 23.8342 32.9479 23.862 32.9276 23.862C32.9171 23.862 32.9087 23.8535 32.9087 23.8431ZM32.9087 24.1714C32.9087 24.091 32.9556 24.0181 33.0288 23.9848L33.0552 23.9728C33.0818 23.9607 33.1108 23.9544 33.1401 23.9544H33.2085C33.2146 23.9544 33.2206 23.9556 33.2262 23.958C33.24 23.9638 33.25 23.9761 33.253 23.9907L33.3239 24.3351C33.3432 24.4292 33.2942 24.5242 33.2066 24.5636C33.1532 24.5876 33.0917 24.5877 33.0383 24.5636L33.0296 24.5597C32.956 24.5266 32.9087 24.4534 32.9087 24.3727V24.1714ZM32.9087 24.6374C32.9087 24.6232 32.9234 24.6137 32.9363 24.6196L33.0098 24.6532C33.0118 24.654 33.0112 24.6569 33.0091 24.6569H32.9261C32.9165 24.6569 32.9087 24.6491 32.9087 24.6395V24.6374ZM32.9087 24.8934C32.9087 24.8372 32.9414 24.786 32.9926 24.7625C33.0115 24.7538 33.032 24.7493 33.0528 24.7493H33.1792C33.2083 24.7493 33.2372 24.7556 33.2638 24.7676L33.3325 24.7988C33.3922 24.8258 33.4354 24.8797 33.4487 24.9439L33.4964 25.1737C33.5304 25.3378 33.3638 25.4712 33.211 25.4021L33.0291 25.3197C32.9558 25.2865 32.9087 25.2134 32.9087 25.1329V24.8934ZM32.906 25.4001C32.9075 25.4001 32.9087 25.3989 32.9087 25.3974V25.3878C32.9087 25.3788 32.9179 25.3728 32.9261 25.3765L33.5731 25.6685C33.5907 25.6764 33.6034 25.6923 33.6072 25.7112C33.6189 25.7695 33.5452 25.8097 33.5002 25.7708C33.3141 25.6103 33.1131 25.4873 32.905 25.4053C32.9022 25.4043 32.903 25.4001 32.906 25.4001ZM32.3307 14.6144C32.3307 14.5012 32.4225 14.4094 32.5357 14.4094H32.6235C32.7368 14.4094 32.8286 14.5012 32.8286 14.6144V15.2803C32.8286 15.3935 32.7368 15.4853 32.6235 15.4853H32.5357C32.4225 15.4853 32.3307 15.3935 32.3307 15.2803V14.6144ZM32.3307 15.7061C32.3307 15.6352 32.3882 15.5778 32.459 15.5778H32.747C32.7836 15.5778 32.8133 15.6075 32.8133 15.6441C32.8133 15.6701 32.7981 15.6937 32.7743 15.7045L32.5119 15.8231C32.427 15.8615 32.3307 15.7994 32.3307 15.7061ZM32.6409 15.8663C32.7218 15.8298 32.8133 15.889 32.8133 15.9776C32.8133 16.0665 32.7214 16.1256 32.6405 16.0888C32.545 16.0452 32.5453 15.9095 32.6409 15.8663ZM32.3307 16.1825C32.3307 16.1209 32.3943 16.0798 32.4505 16.1052L32.8095 16.2674H32.8126C32.813 16.2674 32.8133 16.2677 32.8133 16.2681C32.8133 16.2686 32.8128 16.2689 32.8123 16.2687L32.8095 16.2674H32.4155C32.3687 16.2674 32.3307 16.2294 32.3307 16.1825ZM32.3307 16.457C32.3307 16.4033 32.3742 16.3598 32.4279 16.3598H32.7953C32.8053 16.3598 32.8133 16.3678 32.8133 16.3778C32.8133 16.3848 32.8092 16.3912 32.8027 16.3941L32.4679 16.5455C32.4036 16.5746 32.3307 16.5275 32.3307 16.457ZM32.6405 16.5698C32.7214 16.5329 32.8133 16.592 32.8133 16.6809C32.8133 16.7696 32.7218 16.8287 32.6409 16.7922C32.5453 16.7491 32.545 16.6133 32.6405 16.5698ZM32.3307 16.9333C32.3307 16.8491 32.4177 16.7929 32.4945 16.8276L32.7856 16.9592C32.8024 16.9668 32.8133 16.9836 32.8133 17.0022C32.8133 17.0282 32.7922 17.0494 32.7661 17.0494H32.4467C32.3826 17.0494 32.3307 16.9974 32.3307 16.9333ZM32.3307 17.2484C32.3307 17.1895 32.3784 17.1418 32.4373 17.1418H32.7807C32.7987 17.1418 32.8133 17.1564 32.8133 17.1744C32.8133 17.1872 32.8058 17.1988 32.7941 17.2041L32.4812 17.3455C32.4106 17.3774 32.3307 17.3258 32.3307 17.2484ZM32.6405 17.3758C32.7214 17.339 32.8133 17.3981 32.8133 17.487C32.8133 17.5757 32.7218 17.6348 32.6409 17.5983C32.5453 17.5551 32.545 17.4194 32.6405 17.3758ZM32.3307 17.7248C32.3307 17.6474 32.4106 17.5958 32.4812 17.6276L32.7941 17.7691C32.8058 17.7744 32.8133 17.786 32.8133 17.7988C32.8133 17.8168 32.7987 17.8314 32.7807 17.8314H32.4373C32.3784 17.8314 32.3307 17.7837 32.3307 17.7248ZM32.3307 18.013C32.3307 17.9637 32.3706 17.9238 32.4199 17.9238H32.8112C32.8163 17.9238 32.818 17.9308 32.8133 17.9331L32.4566 18.0943C32.3976 18.121 32.3307 18.0778 32.3307 18.013ZM32.6405 18.1135C32.7214 18.0766 32.8133 18.1357 32.8133 18.2246C32.8133 18.3133 32.7218 18.3724 32.6409 18.3359C32.5453 18.2928 32.545 18.157 32.6405 18.1135ZM32.3307 18.4894C32.3307 18.3993 32.4237 18.3393 32.5058 18.3764L32.7783 18.4996C32.7996 18.5092 32.8133 18.5304 32.8133 18.5538C32.8133 18.5867 32.7866 18.6134 32.7538 18.6134H32.4547C32.3862 18.6134 32.3307 18.5579 32.3307 18.4894ZM32.3307 18.8139C32.3307 18.7542 32.3791 18.7058 32.4387 18.7058H32.7785C32.7977 18.7058 32.8133 18.7214 32.8133 18.7407C32.8133 18.7543 32.8053 18.7668 32.7928 18.7724L32.4832 18.9123C32.4117 18.9447 32.3307 18.8924 32.3307 18.8139ZM32.6409 18.9426C32.7218 18.9061 32.8133 18.9653 32.8133 19.0539C32.8133 19.1428 32.7214 19.2019 32.6405 19.1651C32.545 19.1215 32.5453 18.9858 32.6409 18.9426ZM32.3307 19.2903C32.3307 19.2139 32.4096 19.163 32.4791 19.1944L32.7955 19.3374C32.8063 19.3423 32.8133 19.3532 32.8133 19.3651C32.8133 19.3818 32.7997 19.3954 32.783 19.3954H32.4358C32.3778 19.3954 32.3307 19.3483 32.3307 19.2903ZM32.3307 19.5698C32.3307 19.5245 32.3674 19.4878 32.4126 19.4878H32.7923L32.8082 19.4809C32.8106 19.4798 32.8133 19.4816 32.8133 19.4842C32.8133 19.4862 32.8117 19.4878 32.8097 19.4878H32.7923L32.4464 19.6444C32.3922 19.6689 32.3307 19.6293 32.3307 19.5698ZM32.6409 19.6581C32.7218 19.6216 32.8133 19.6807 32.8133 19.7694C32.8133 19.8583 32.7214 19.9174 32.6405 19.8805C32.545 19.837 32.5453 19.7013 32.6409 19.6581ZM32.3307 19.9922C32.3307 19.9222 32.403 19.8755 32.4669 19.9044L32.8034 20.0565C32.8094 20.0592 32.8133 20.0652 32.8133 20.0718C32.8133 20.0811 32.8058 20.0887 32.7965 20.0887H32.4271C32.3739 20.0887 32.3307 20.0455 32.3307 19.9922ZM32.3307 20.271C32.3307 20.2214 32.371 20.1811 32.4206 20.1811H32.8381L32.852 20.1736C32.8538 20.1727 32.8561 20.1733 32.8572 20.1751C32.8589 20.1777 32.857 20.1811 32.8539 20.1811H32.8381L32.8133 20.1922L32.4576 20.353C32.3981 20.3799 32.3307 20.3364 32.3307 20.271ZM32.6409 20.3717C32.7218 20.3352 32.8133 20.3943 32.8133 20.483C32.8133 20.5719 32.7214 20.631 32.6405 20.5941C32.545 20.5506 32.5453 20.4149 32.6409 20.3717ZM32.3307 20.6935C32.3307 20.6292 32.397 20.5864 32.4556 20.6129L32.8133 20.7746C32.817 20.7764 32.8157 20.782 32.8116 20.782H32.4192C32.3703 20.782 32.3307 20.7423 32.3307 20.6935ZM32.3307 20.9694C32.3307 20.9169 32.3732 20.8744 32.4257 20.8744H32.7987C32.8068 20.8744 32.8133 20.8809 32.8133 20.889C32.8133 20.8947 32.8099 20.8999 32.8047 20.9023L32.4648 21.056C32.4019 21.0844 32.3307 21.0384 32.3307 20.9694ZM32.6409 21.0779C32.7218 21.0414 32.8133 21.1005 32.8133 21.1892C32.8133 21.2781 32.7214 21.3372 32.6405 21.3003C32.545 21.2568 32.5453 21.1211 32.6409 21.0779ZM32.3307 21.3919C32.3307 21.3313 32.3933 21.291 32.4484 21.316L32.8 21.4752H32.8111C32.8123 21.4752 32.8133 21.4762 32.8133 21.4775C32.8133 21.479 32.8117 21.4801 32.8102 21.4795L32.8 21.4752H32.414C32.368 21.4752 32.3307 21.4379 32.3307 21.3919ZM32.3307 21.6924C32.3307 21.6235 32.3865 21.5677 32.4554 21.5677H32.7526C32.7861 21.5677 32.8133 21.5948 32.8133 21.6283C32.8133 21.6522 32.7993 21.6738 32.7776 21.6836L32.5068 21.8061C32.4242 21.8434 32.3307 21.783 32.3307 21.6924ZM32.6409 21.847C32.7218 21.8105 32.8133 21.8696 32.8133 21.9583C32.8133 22.0472 32.7214 22.1063 32.6405 22.0694C32.545 22.0259 32.5453 21.8902 32.6409 21.847ZM32.3307 22.1778C32.3307 22.1093 32.4014 22.0637 32.4638 22.0919L32.8054 22.2463C32.8102 22.2485 32.8133 22.2533 32.8133 22.2586C32.8133 22.266 32.8073 22.272 32.7998 22.272H32.425C32.3729 22.272 32.3307 22.2298 32.3307 22.1778ZM32.3307 22.4716C32.3307 22.4124 32.3786 22.3645 32.4378 22.3645H32.7807C32.7987 22.3645 32.8133 22.3791 32.8133 22.3971C32.8133 22.4099 32.8058 22.4215 32.7942 22.4268L32.4822 22.569C32.4113 22.6013 32.3307 22.5495 32.3307 22.4716ZM32.64 22.5987C32.7211 22.5618 32.8133 22.6211 32.8133 22.7102C32.8133 22.7993 32.7211 22.8586 32.64 22.8216C32.5445 22.7781 32.5445 22.6423 32.64 22.5987ZM32.3307 22.956C32.3307 22.8755 32.4139 22.8218 32.4873 22.8549L32.7902 22.9918C32.8043 22.9982 32.8133 23.0122 32.8133 23.0277C32.8133 23.0494 32.7957 23.067 32.774 23.067H32.4416C32.3804 23.067 32.3307 23.0173 32.3307 22.956ZM32.3307 23.2564C32.3307 23.2028 32.3741 23.1594 32.4277 23.1594H32.7964C32.8057 23.1594 32.8133 23.167 32.8133 23.1763C32.8133 23.1829 32.8094 23.1889 32.8034 23.1917L32.4679 23.3446C32.4037 23.3739 32.3307 23.327 32.3307 23.2564ZM32.6414 23.3683C32.722 23.3319 32.8133 23.3908 32.8133 23.4793C32.8133 23.5677 32.722 23.6266 32.6414 23.5903C32.5459 23.5471 32.5459 23.4114 32.6414 23.3683ZM32.3307 23.7401C32.3307 23.6516 32.4221 23.5927 32.5027 23.6291L32.7803 23.7546C32.8004 23.7637 32.8133 23.7837 32.8133 23.8058C32.8133 23.8368 32.7882 23.862 32.7571 23.862H32.4525C32.3852 23.862 32.3307 23.8074 32.3307 23.7401ZM32.3307 24.0506C32.3307 23.9975 32.3738 23.9544 32.4269 23.9544H32.7976C32.8063 23.9544 32.8133 23.9614 32.8133 23.9701C32.8133 23.9763 32.8097 23.9819 32.8041 23.9845L32.4669 24.1382C32.4031 24.1673 32.3307 24.1207 32.3307 24.0506ZM32.6405 24.1607C32.7214 24.1238 32.8133 24.183 32.8133 24.2718C32.8133 24.3605 32.7218 24.4196 32.6409 24.3831C32.5453 24.34 32.545 24.2042 32.6405 24.1607ZM32.3307 24.5344C32.3307 24.4453 32.4226 24.386 32.5037 24.4227L32.7796 24.5474C32.8001 24.5567 32.8133 24.5771 32.8133 24.5996C32.8133 24.6313 32.7876 24.6569 32.756 24.6569H32.4532C32.3856 24.6569 32.3307 24.602 32.3307 24.5344ZM32.3307 24.832C32.3307 24.7863 32.3677 24.7493 32.4133 24.7493H32.7961L32.8092 24.7437C32.8111 24.7429 32.8133 24.7443 32.8133 24.7464C32.8133 24.748 32.812 24.7493 32.8104 24.7493H32.7961L32.4474 24.9072C32.3927 24.932 32.3307 24.892 32.3307 24.832ZM32.6411 24.9217C32.7218 24.8851 32.8133 24.9441 32.8133 25.0327C32.8133 25.1215 32.7214 25.1805 32.6407 25.1436C32.5456 25.1 32.5459 24.9649 32.6411 24.9217ZM32.3307 25.2174C32.3307 25.1652 32.3845 25.1305 32.432 25.152L32.7997 25.3182C32.808 25.3219 32.8133 25.3301 32.8133 25.3392C32.8133 25.3558 32.7962 25.3672 32.7805 25.3619C32.7743 25.3598 32.768 25.3577 32.7618 25.3557C32.6418 25.3201 32.5217 25.2987 32.4006 25.2906C32.3617 25.2879 32.3307 25.2563 32.3307 25.2174ZM32.283 20.4307C32.283 20.4298 32.2839 20.4293 32.2847 20.4297C32.2855 20.4301 32.2855 20.4313 32.2847 20.4317C32.2839 20.4321 32.283 20.4316 32.283 20.4307ZM31.747 14.6144C31.747 14.5012 31.8388 14.4094 31.952 14.4094H32.0398C32.1531 14.4094 32.2449 14.5012 32.2449 14.6144V15.2803C32.2449 15.3935 32.1531 15.4853 32.0398 15.4853H31.952C31.8388 15.4853 31.747 15.3935 31.747 15.2803V14.6144ZM32.0944 17.6276C32.1649 17.5958 32.2449 17.6474 32.2449 17.7248C32.2449 17.7837 32.1971 17.8314 32.1383 17.8314H31.7948C31.7768 17.8314 31.7622 17.8168 31.7622 17.7988C31.7622 17.786 31.7697 17.7744 31.7814 17.7691L32.0944 17.6276ZM31.9346 17.5983C31.8538 17.6348 31.7622 17.5757 31.7622 17.487C31.7622 17.3981 31.8542 17.339 31.935 17.3758C32.0305 17.4194 32.0303 17.5551 31.9346 17.5983ZM31.7814 17.2041C31.7697 17.1988 31.7622 17.1872 31.7622 17.1744C31.7622 17.1564 31.7768 17.1418 31.7948 17.1418H32.1383C32.1971 17.1418 32.2449 17.1895 32.2449 17.2484C32.2449 17.3258 32.1649 17.3774 32.0944 17.3455L31.7814 17.2041ZM31.8094 17.0494C31.7834 17.0494 31.7622 17.0282 31.7622 17.0022C31.7622 16.9836 31.7731 16.9668 31.79 16.9592L32.081 16.8276C32.1578 16.7929 32.2449 16.8491 32.2449 16.9333C32.2449 16.9974 32.1929 17.0494 32.1288 17.0494H31.8094ZM31.9346 16.7922C31.8538 16.8287 31.7622 16.7696 31.7622 16.6809C31.7622 16.592 31.8542 16.5329 31.935 16.5698C32.0305 16.6133 32.0303 16.7491 31.9346 16.7922ZM31.7728 16.3941C31.7664 16.3912 31.7622 16.3848 31.7622 16.3778C31.7622 16.3678 31.7703 16.3598 31.7802 16.3598H32.1477C32.2014 16.3598 32.2449 16.4033 32.2449 16.457C32.2449 16.5275 32.172 16.5746 32.1077 16.5455L31.7728 16.3941ZM31.7661 16.2674L31.7633 16.2687C31.7628 16.2689 31.7622 16.2686 31.7622 16.2681C31.7622 16.2677 31.7626 16.2674 31.763 16.2674H31.7661L32.1251 16.1052C32.1812 16.0798 32.2449 16.1209 32.2449 16.1825C32.2449 16.2294 32.2069 16.2674 32.16 16.2674H31.7661ZM31.935 16.0888C31.8542 16.1256 31.7622 16.0665 31.7622 15.9776C31.7622 15.889 31.8538 15.8298 31.9346 15.8663C32.0303 15.9095 32.0305 16.0452 31.935 16.0888ZM31.8012 15.7045C31.7775 15.6937 31.7622 15.6701 31.7622 15.6441C31.7622 15.6075 31.7919 15.5778 31.8285 15.5778H32.1165C32.1874 15.5778 32.2449 15.6352 32.2449 15.7061C32.2449 15.7994 32.1486 15.8615 32.0636 15.8231L31.8012 15.7045ZM32.1573 17.9238C32.2057 17.9238 32.2449 17.9637 32.2449 18.012C32.2449 18.0768 32.178 18.121 32.1189 18.0943L31.7622 17.9331C31.7575 17.931 31.759 17.9238 31.7642 17.9238H32.1573ZM32.1087 19.9044C32.1725 19.8755 32.2449 19.9222 32.2449 19.9922C32.2449 20.0455 32.2017 20.0887 32.1484 20.0887H31.7791C31.7698 20.0887 31.7622 20.0811 31.7622 20.0718C31.7622 20.0652 31.7661 20.0592 31.7722 20.0565L32.1087 19.9044ZM31.935 19.8805C31.8542 19.9174 31.7622 19.8583 31.7622 19.7694C31.7622 19.6807 31.8538 19.6216 31.9346 19.6581C32.0303 19.7013 32.0305 19.837 31.935 19.8805ZM31.7832 19.4878H31.7659C31.7639 19.4878 31.7622 19.4862 31.7622 19.4842C31.7622 19.4816 31.765 19.4798 31.7674 19.4809L31.7832 19.4878H32.1629C32.2082 19.4878 32.2449 19.5245 32.2449 19.5698C32.2449 19.6293 32.1834 19.6689 32.1292 19.6444L31.7832 19.4878ZM31.7926 19.3954C31.7758 19.3954 31.7622 19.3818 31.7622 19.3651C31.7622 19.3532 31.7692 19.3423 31.7801 19.3374L32.0964 19.1944C32.166 19.163 32.2449 19.2139 32.2449 19.2903C32.2449 19.3483 32.1978 19.3954 32.1397 19.3954H31.7926ZM31.935 19.1651C31.8542 19.2019 31.7622 19.1428 31.7622 19.0539C31.7622 18.9653 31.8538 18.9061 31.9346 18.9426C32.0303 18.9858 32.0305 19.1215 31.935 19.1651ZM31.7827 18.7724C31.7703 18.7668 31.7622 18.7543 31.7622 18.7407C31.7622 18.7214 31.7778 18.7058 31.7971 18.7058H32.1368C32.1965 18.7058 32.2449 18.7542 32.2449 18.8139C32.2449 18.8924 32.1638 18.9447 32.0923 18.9123L31.7827 18.7724ZM31.8218 18.6134C31.7889 18.6134 31.7622 18.5867 31.7622 18.5538C31.7622 18.5304 31.7759 18.5092 31.7973 18.4996L32.0698 18.3764C32.1519 18.3393 32.2449 18.3993 32.2449 18.4894C32.2449 18.5579 32.1893 18.6134 32.1209 18.6134H31.8218ZM31.9346 18.3359C31.8538 18.3724 31.7622 18.3133 31.7622 18.2246C31.7622 18.1357 31.8542 18.0766 31.935 18.1135C32.0305 18.157 32.0303 18.2928 31.9346 18.3359ZM32.1556 20.1811C32.2049 20.1811 32.2449 20.2213 32.2449 20.2706C32.2449 20.336 32.1774 20.3799 32.1179 20.353L31.7622 20.1922C31.7565 20.1897 31.7584 20.1811 31.7646 20.1811H32.1556ZM31.7813 22.4268C31.7697 22.4215 31.7622 22.4099 31.7622 22.3971C31.7622 22.3791 31.7769 22.3645 31.7949 22.3645H32.1378C32.1969 22.3645 32.2449 22.4124 32.2449 22.4716C32.2449 22.5495 32.1643 22.6013 32.0933 22.569L31.7813 22.4268ZM31.9355 22.5987C32.0311 22.6423 32.0311 22.7781 31.9355 22.8216C31.8544 22.8586 31.7622 22.7993 31.7622 22.7102C31.7622 22.6211 31.8544 22.5618 31.9355 22.5987ZM31.7757 22.272C31.7683 22.272 31.7622 22.266 31.7622 22.2586C31.7622 22.2533 31.7653 22.2485 31.7702 22.2463L32.1118 22.0919C32.1742 22.0637 32.2449 22.1093 32.2449 22.1778C32.2449 22.2298 32.2027 22.272 32.1506 22.272H31.7757ZM31.9349 22.0691C31.8542 22.1061 31.7622 22.0471 31.7622 21.9583C31.7622 21.8697 31.8538 21.8107 31.9345 21.8473C32.0297 21.8905 32.0299 22.0256 31.9349 22.0691ZM31.7979 21.6836C31.7762 21.6738 31.7622 21.6522 31.7622 21.6283C31.7622 21.5948 31.7894 21.5677 31.8229 21.5677H32.1201C32.189 21.5677 32.2449 21.6235 32.2449 21.6924C32.2449 21.783 32.1513 21.8434 32.0688 21.8061L31.7979 21.6836ZM31.7756 21.4752L31.7653 21.4795C31.7639 21.4801 31.7622 21.479 31.7622 21.4775C31.7622 21.4762 31.7632 21.4752 31.7645 21.4752H31.7756L32.1271 21.316C32.1823 21.291 32.2449 21.3313 32.2449 21.3919C32.2449 21.4379 32.2075 21.4752 32.1615 21.4752H31.7756ZM31.935 21.3003C31.8542 21.3372 31.7622 21.2781 31.7622 21.1892C31.7622 21.1005 31.8538 21.0414 31.9346 21.0779C32.0303 21.1211 32.0305 21.2568 31.935 21.3003ZM31.7708 20.9023C31.7656 20.8999 31.7622 20.8947 31.7622 20.889C31.7622 20.8809 31.7688 20.8744 31.7769 20.8744H32.1499C32.2023 20.8744 32.2449 20.9169 32.2449 20.9694C32.2449 21.0384 32.1736 21.0844 32.1107 21.056L31.7708 20.9023ZM31.7639 20.782C31.7598 20.782 31.7585 20.7764 31.7622 20.7746L32.1199 20.6129C32.1785 20.5864 32.2449 20.6292 32.2449 20.6935C32.2449 20.7423 32.2052 20.782 32.1564 20.782H31.7639ZM31.935 20.5941C31.8542 20.631 31.7622 20.5719 31.7622 20.483C31.7622 20.3943 31.8538 20.3352 31.9346 20.3717C32.0303 20.4149 32.0305 20.5506 31.935 20.5941ZM31.7622 23.0023L32.0882 22.8549C32.1616 22.8218 32.2449 22.8758 32.2449 22.9564C32.2449 23.0174 32.1954 23.067 32.1344 23.067H31.6716C31.6591 23.067 31.6554 23.0499 31.6669 23.0448L31.7622 23.0023ZM32.1435 25.152C32.191 25.1305 32.2449 25.1652 32.2449 25.2174C32.2449 25.2563 32.2138 25.2879 32.175 25.2905C32.0534 25.2987 31.9322 25.32 31.8137 25.3557C31.8071 25.3577 31.8009 25.3596 31.7949 25.3616C31.7792 25.3669 31.7622 25.3558 31.7622 25.3392C31.7622 25.3301 31.7676 25.3219 31.7758 25.3182L32.1435 25.152ZM31.9349 25.1436C31.8542 25.1805 31.7622 25.1215 31.7622 25.0327C31.7622 24.9441 31.8538 24.8851 31.9345 24.9217C32.0297 24.9649 32.0299 25.1 31.9349 25.1436ZM31.7794 24.7493H31.7652C31.7636 24.7493 31.7622 24.748 31.7622 24.7464C31.7622 24.7443 31.7644 24.7429 31.7663 24.7437L31.7794 24.7493H32.1622C32.2079 24.7493 32.2449 24.7863 32.2449 24.832C32.2449 24.892 32.1828 24.932 32.1281 24.9072L31.7794 24.7493ZM31.8195 24.6569C31.7879 24.6569 31.7622 24.6313 31.7622 24.5996C31.7622 24.5771 31.7754 24.5567 31.7959 24.5474L32.0718 24.4227C32.1529 24.386 32.2449 24.4453 32.2449 24.5344C32.2449 24.602 32.19 24.6569 32.1223 24.6569H31.8195ZM31.9345 24.3828C31.8538 24.4194 31.7622 24.3604 31.7622 24.2718C31.7622 24.183 31.8542 24.124 31.9349 24.161C32.0299 24.2045 32.0297 24.3397 31.9345 24.3828ZM31.7715 23.9845C31.7659 23.9819 31.7622 23.9763 31.7622 23.9701C31.7622 23.9614 31.7693 23.9544 31.778 23.9544H32.1486C32.2018 23.9544 32.2449 23.9975 32.2449 24.0506C32.2449 24.1207 32.1724 24.1673 32.1087 24.1382L31.7715 23.9845ZM31.8184 23.862C31.7874 23.862 31.7622 23.8368 31.7622 23.8058C31.7622 23.7837 31.7752 23.7637 31.7953 23.7546L32.0729 23.6291C32.1535 23.5927 32.2449 23.6516 32.2449 23.7401C32.2449 23.8074 32.1903 23.862 32.123 23.862H31.8184ZM31.934 23.59C31.8535 23.6264 31.7622 23.5676 31.7622 23.4793C31.7622 23.3909 31.8535 23.3321 31.934 23.3686C32.0291 23.4117 32.0291 23.5468 31.934 23.59ZM31.7721 23.1917C31.7661 23.1889 31.7622 23.1829 31.7622 23.1763C31.7622 23.167 31.7698 23.1594 31.7791 23.1594H32.1479C32.2014 23.1594 32.2449 23.2028 32.2449 23.2564C32.2449 23.327 32.1719 23.3739 32.1077 23.3446L31.7721 23.1917ZM31.634 22.4846C31.6362 22.4742 31.6474 22.4685 31.6571 22.4728C31.6631 22.4755 31.6669 22.4814 31.6669 22.488V22.9046C31.6669 22.928 31.6531 22.9493 31.6316 22.9588C31.5874 22.9785 31.5394 22.9399 31.5493 22.8925L31.634 22.4846ZM31.4889 23.1668C31.4852 23.1651 31.4863 23.1594 31.4905 23.1594C31.4929 23.1594 31.4947 23.1617 31.4942 23.164L31.4933 23.1687L31.5456 23.1921C31.6194 23.2251 31.6669 23.2984 31.6669 23.3792V23.5802C31.6669 23.6606 31.6199 23.7336 31.5467 23.7668L31.4395 23.8156C31.4264 23.8216 31.4114 23.8216 31.3982 23.8156C31.3769 23.806 31.3651 23.7828 31.3699 23.7598L31.4933 23.1687L31.4889 23.1668ZM31.6402 23.8259C31.6527 23.8202 31.6669 23.8294 31.6669 23.8431C31.6669 23.8535 31.6584 23.862 31.648 23.862C31.6277 23.862 31.6217 23.8342 31.6402 23.8259ZM31.3229 23.9889C31.3257 23.9754 31.3348 23.9639 31.3474 23.9582C31.353 23.9557 31.3591 23.9544 31.3653 23.9544H31.4355C31.4648 23.9544 31.4937 23.9607 31.5204 23.9728L31.5467 23.9848C31.6199 24.0181 31.6669 24.091 31.6669 24.1714V24.3727C31.6669 24.4534 31.6196 24.5266 31.546 24.5597L31.5373 24.5636C31.4838 24.5877 31.4224 24.5876 31.3689 24.5636C31.2813 24.5242 31.2324 24.4292 31.2517 24.3351L31.3229 23.9889ZM31.6392 24.6196C31.6522 24.6137 31.6669 24.6232 31.6669 24.6374V24.6395C31.6669 24.6491 31.6591 24.6569 31.6494 24.6569H31.5665C31.5643 24.6569 31.5638 24.654 31.5658 24.6532L31.6392 24.6196ZM31.1927 24.6235C31.1962 24.6057 31.2154 24.5958 31.2319 24.6034L31.3407 24.6532C31.3426 24.654 31.3421 24.6569 31.34 24.6569H31.2165C31.2008 24.6569 31.189 24.6426 31.192 24.6271L31.1927 24.6235ZM31.1268 24.9439C31.1401 24.8797 31.1833 24.8258 31.243 24.7988L31.3118 24.7676C31.3384 24.7556 31.3672 24.7493 31.3964 24.7493H31.521C31.5417 24.7493 31.5622 24.7538 31.5811 24.7623C31.6333 24.7859 31.6669 24.8379 31.6669 24.8953V25.1329C31.6669 25.2134 31.6198 25.2865 31.5464 25.3197L31.3645 25.4021C31.2118 25.4712 31.0451 25.3378 31.0792 25.1737L31.1268 24.9439ZM30.9682 25.7108C30.9721 25.6921 30.9847 25.6765 31.0021 25.6686L31.6495 25.3765C31.6576 25.3728 31.6669 25.3788 31.6669 25.3878V25.3974C31.6669 25.3989 31.6681 25.4001 31.6696 25.4001C31.6725 25.4001 31.6733 25.4043 31.6706 25.4053C31.4625 25.4873 31.2614 25.6103 31.0745 25.7708C31.0294 25.8095 30.956 25.7689 30.9682 25.7108ZM33.8556 27.2157C33.8443 27.3197 33.7565 27.3986 33.6518 27.3986H30.9224C30.8175 27.3986 30.7295 27.3194 30.7185 27.2151L30.6951 26.9929C30.6823 26.8718 30.7772 26.7663 30.8989 26.7663H33.6759C33.7979 26.7663 33.8929 26.8722 33.8798 26.9935L33.8556 27.2157ZM33.9331 26.4922C33.9222 26.5955 33.8351 26.6739 33.7313 26.6739H30.8414C30.7381 26.6739 30.6515 26.5959 30.6406 26.4931C30.6357 26.4463 30.6471 26.399 30.674 26.3603C30.7411 26.2637 30.81 26.175 30.8829 26.0952L30.8943 26.0804C31.1728 25.7643 31.5009 25.5443 31.8405 25.4445C31.9873 25.4019 32.1361 25.3798 32.283 25.3798H32.2925C32.4394 25.3798 32.5882 25.4019 32.7351 25.4445C33.0746 25.5443 33.4027 25.7643 33.6812 26.0804L33.6927 26.0952C33.764 26.1751 33.8341 26.264 33.9006 26.3607C33.927 26.3991 33.938 26.4459 33.9331 26.4922Z" fill="#DBB16D"/>
<path d="M32.8142 16.2674V16.2697L32.8096 16.2674H32.8142Z" fill="#DBB16D"/>
<path d="M32.814 19.4786V19.4881H32.7925L32.814 19.4786Z" fill="#DBB16D"/>
<path d="M32.8134 21.4753V21.4808L32.8 21.4753H32.8134Z" fill="#DBB16D"/>
<path d="M32.2876 20.4312L32.283 20.4335V20.4289L32.2876 20.4312Z" fill="#DBB16D"/>
<path d="M32.8382 20.1812L32.8132 20.1922V20.1812H32.8382Z" fill="#DBB16D"/>
<path d="M32.8288 20.7821H32.8132V20.7746L32.8288 20.7821Z" fill="#DBB16D"/>
<path d="M32.8328 17.9238L32.8132 17.9333V17.9238H32.8328Z" fill="#DBB16D"/>
<path d="M32.8616 20.1814H32.8381L32.8558 20.1719L32.8616 20.1814Z" fill="#DBB16D"/>
<path d="M31.767 16.2674L31.7625 16.2697V16.2674H31.767Z" fill="#DBB16D"/>
<path d="M31.7839 19.4881H31.7625V19.4786L31.7839 19.4881Z" fill="#DBB16D"/>
<path d="M31.7758 21.4753L31.7625 21.4808V21.4753H31.7758Z" fill="#DBB16D"/>
<path d="M32.2878 20.4312L32.2832 20.4335V20.4289L32.2878 20.4312Z" fill="#DBB16D"/>
<path d="M31.7624 23.0023V23.0671H31.667V23.0449L31.7624 23.0023Z" fill="#DBB16D"/>
<path d="M31.7625 20.1812V20.1922L31.7375 20.1812H31.7625Z" fill="#DBB16D"/>
<path d="M31.7626 20.7746V20.7821H31.7471L31.7626 20.7746Z" fill="#DBB16D"/>
<path d="M31.7629 17.9239V17.9333L31.7415 17.9239H31.7629Z" fill="#DBB16D"/>
<path d="M31.4959 23.1595L31.494 23.169L31.4724 23.1595H31.4959Z" fill="#DBB16D"/>
</g>
<line x1="30.657" y1="24.0899" x2="33.3022" y2="24.0899" stroke="#B38037" stroke-opacity="0.6" stroke-width="0.102511"/>
<line x1="30.657" y1="23.5306" x2="33.3022" y2="23.5306" stroke="#C3944F" stroke-width="0.102511"/>
<path d="M34.5321 43.6069C33.3673 41.39 32.7352 39.3933 32.3952 37.7175C32.1861 36.6812 32.0879 35.7678 32.0447 34.9998C31.9442 33.1966 32.2047 31.2122 32.7293 27.3173C32.7445 27.2033 32.7597 27.0903 32.7749 26.9785C32.8195 26.6506 32.7749 26.9785 32.8373 26.5656C32.9093 26.0684 32.8588 26.3684 32.9093 26.0149C33.1044 24.6476 33.2948 23.4089 33.4701 22.3245C33.8112 22.2139 34.1349 22.1278 34.441 22.0618C34.4188 22.1915 34.3966 22.3234 34.3744 22.4565C34.3744 22.4565 34.3732 22.4565 34.3732 22.4576C34.3732 22.4587 34.3732 22.4598 34.3721 22.4609C34.3709 22.4643 34.3697 22.4688 34.3686 22.4755C34.3674 22.4822 34.365 22.49 34.3639 22.4989C34.3627 22.5034 34.3627 22.509 34.3615 22.5146C34.3604 22.5202 34.3592 22.5258 34.3592 22.5314L34.358 22.5325C34.3569 22.5459 34.3557 22.5593 34.3534 22.5761V22.5772C34.2517 23.1798 34.1501 23.8125 34.0496 24.4721C33.9561 25.087 33.8685 25.6661 33.7867 26.215C33.7855 26.2161 33.7855 26.2172 33.7855 26.2195C33.2212 29.1026 33.0798 31.618 33.0927 33.5822V33.6158C33.0927 33.6806 33.0927 33.7444 33.0939 33.807C33.0939 33.8684 33.095 33.9288 33.0962 33.9892V34.0272C33.1091 35.0792 33.1757 36.3 33.3427 37.6695C33.3451 37.6896 33.3474 37.7086 33.3497 37.7276C33.3509 37.7466 33.3532 37.7656 33.3568 37.7846C33.3591 37.8081 33.3626 37.8304 33.3649 37.8528C33.6243 39.9769 34.0379 41.8528 34.4807 43.4258C34.4971 43.4872 34.5146 43.5476 34.5321 43.6069Z" fill="url(#paint2_linear_366_10473)"/>
<path d="M34.7354 44.1233C34.7238 46.0245 34.7135 47.9256 34.702 49.8268C34.6939 50.4818 34.6835 51.1601 34.6709 51.8572H34.0282V49.8003H33.1149C33.1183 50.4852 33.1206 51.1712 33.1218 51.8572H32.4849C32.4238 46.9789 32.3628 42.0996 32.3018 37.2213C32.6369 38.8772 33.26 40.8502 34.4083 43.0408C34.5165 43.4197 34.6259 43.7809 34.7354 44.1233Z" fill="url(#paint3_linear_366_10473)"/>
<path d="M31.5609 37.0859C31.5033 42.0093 31.4457 46.9338 31.388 51.8572H30.7866C30.7877 51.1648 30.7899 50.4725 30.7931 49.7812H29.9307V51.8572H29.3238C29.3119 51.1537 29.3021 50.4691 29.2945 49.808C29.2836 47.8893 29.2738 45.9705 29.2629 44.0518V44.0351C29.3315 43.7943 29.4261 43.452 29.5359 43.0317C29.549 43.0071 29.5598 42.9826 29.5718 42.9592C30.6561 40.7484 31.2445 38.7572 31.5609 37.0859Z" fill="url(#paint4_linear_366_10473)"/>
<path d="M35.6936 49.3062C35.6811 50.3566 35.6061 51.2361 35.5356 51.8572H34.532C34.5365 51.0573 34.5399 50.2574 34.5433 49.4588C34.5729 46.9731 34.5831 44.7378 34.5774 42.7244C34.8457 43.7291 35.1105 44.5943 35.3424 45.3041C35.3947 45.4659 35.4481 45.6251 35.5015 45.7817C35.5061 45.877 35.5141 45.9657 35.5231 46.0466C35.5322 46.1262 35.5618 46.3806 35.5948 46.7604V46.7617C35.6243 47.1088 35.6561 47.5602 35.6766 48.0822C35.6914 48.4489 35.6982 48.8547 35.6936 49.3062Z" fill="url(#paint5_linear_366_10473)"/>
<path d="M36.098 30.3433C36.1072 35.6043 36.373 35.2596 36.1534 37.5164C34.9657 34.5473 34.5358 31.5618 34.3267 30.1056C33.8461 26.7655 33.9408 24.0571 33.9905 22.9968C33.9916 22.9946 33.9916 22.9935 33.9916 22.9914C34.0275 22.6892 34.3654 20.4879 34.4047 20.213C35.2805 20.0298 35.7321 20.3578 35.8857 20.3578C35.8857 20.2927 36.3687 20.4342 36.3952 20.4364C36.2185 23.9215 36.0945 28.2916 36.098 30.3433Z" fill="url(#paint6_linear_366_10473)"/>
<path d="M31.8195 35.0388C31.7793 35.8092 31.6879 36.7253 31.4933 37.7648C31.1768 39.4456 30.5884 41.4483 29.5042 43.6719C29.4922 43.6954 29.4813 43.7201 29.4683 43.7447C29.8304 42.3498 30.3481 40.1072 30.5906 37.9004C30.5906 37.8993 30.5917 37.887 30.5939 37.8679C30.5939 37.8612 30.595 37.8545 30.596 37.8466C30.5971 37.8421 30.5971 37.8365 30.5982 37.832C30.6015 37.813 30.6037 37.7939 30.6048 37.7748C30.6069 37.7558 30.6091 37.7367 30.6113 37.7165C30.7668 36.3429 30.8288 35.1184 30.8407 34.0633V34.0252C30.8418 33.9646 30.8429 33.9041 30.8429 33.8424C30.844 33.7796 30.844 33.7157 30.844 33.6506V33.617C30.856 31.6468 30.7244 29.1239 30.1991 26.232C30.1991 26.2298 30.1991 26.2286 30.198 26.2275C30.1219 25.677 30.0403 25.0961 29.9533 24.4794C29.8598 23.8178 29.7652 23.1831 29.6705 22.5788V22.5776C29.6695 22.5687 29.6684 22.5608 29.6673 22.553C29.6662 22.5384 29.6651 22.5272 29.6629 22.516C29.6618 22.5104 29.6618 22.5047 29.6608 22.5003C29.6586 22.4857 29.6564 22.4745 29.6542 22.4677C29.6542 22.4655 29.6542 22.4633 29.6531 22.4621C29.6531 22.461 29.6521 22.4599 29.6521 22.4588C29.6521 22.4577 29.651 22.4577 29.651 22.4577C29.6303 22.3242 29.6096 22.1919 29.589 22.0618C29.8739 22.128 30.1752 22.2143 30.4927 22.3253C30.5025 22.3937 30.5134 22.4621 30.5232 22.5305C30.5395 22.6348 30.5547 22.7402 30.5699 22.8468C30.5852 22.9533 30.6015 23.0609 30.6178 23.1697C30.6363 23.2975 30.6548 23.4276 30.6744 23.5599C30.7005 23.7416 30.7266 23.9277 30.7527 24.1161C30.769 24.2248 30.7842 24.3336 30.7994 24.4446C30.8136 24.5455 30.8277 24.6476 30.8418 24.7507C30.8701 24.9559 30.8995 25.1656 30.9278 25.3787C30.943 25.4852 30.9571 25.5929 30.9713 25.7005C30.9854 25.8081 31.0006 25.9169 31.0148 26.0268C31.0565 26.3509 31.0905 26.5806 31.093 26.6387C31.0955 26.6969 31.123 26.8599 31.1398 26.9934C31.154 27.1055 31.1681 27.2188 31.1822 27.3331C31.6705 31.2398 31.9131 33.2301 31.8195 35.0388Z" fill="url(#paint7_linear_366_10473)"/>
<path d="M29.7349 22.6074C29.7295 22.5791 29.7262 22.5518 29.7219 22.5245C29.7241 22.5311 29.7262 22.542 29.7284 22.5561C29.7295 22.5605 29.7295 22.566 29.7306 22.5714C29.7327 22.5823 29.7338 22.5933 29.7349 22.6074Z" stroke="white" stroke-width="0.205023" stroke-miterlimit="10"/>
<path d="M29.6779 30.1055C29.468 31.5618 29.0368 34.5473 27.8452 37.5164C27.6249 35.2596 27.8915 35.6043 27.9008 30.3433C27.9043 28.2915 27.8695 25.4304 27.6921 21.9453C27.7188 21.9431 27.7466 21.942 27.7733 21.9409C28.2961 21.9202 29.0218 21.9409 29.9004 22.1242C29.9398 22.3991 29.9781 22.6892 30.014 22.9914C30.014 22.9935 30.014 22.9946 30.0152 22.9968C30.065 24.0571 30.1601 26.7655 29.6779 30.1055Z" fill="url(#paint8_linear_366_10473)"/>
<path d="M29.3838 51.8572H28.3559C28.2837 51.3379 28.2069 50.6027 28.1941 49.7246C28.1894 49.3472 28.1964 49.008 28.2115 48.7015C28.2325 48.2652 28.2651 47.8877 28.2953 47.5976V47.5965C28.3291 47.2791 28.3594 47.0664 28.3687 46.9998C28.378 46.9322 28.3861 46.858 28.3908 46.7784C28.4211 46.7075 28.4502 46.6355 28.4793 46.5624C28.4874 46.5439 28.4944 46.5264 28.5014 46.5079C28.5189 46.4653 28.5363 46.4217 28.5538 46.3792C28.6946 46.0279 28.8472 45.6309 29.0043 45.1902C29.0788 44.9862 29.1533 44.7713 29.229 44.5477C29.2383 44.5183 29.2488 44.4888 29.2581 44.4594C29.2849 44.3819 29.3105 44.3023 29.3373 44.2227C29.3314 45.9058 29.3419 47.7743 29.3722 49.8523C29.3757 50.5198 29.3792 51.1885 29.3838 51.8572Z" fill="url(#paint9_linear_366_10473)"/>
<path d="M34.9553 18.0205C34.849 18.5583 34.7319 19.1713 34.6073 19.8531C34.6073 19.8564 34.6063 19.8585 34.6063 19.8618C34.6009 19.8945 34.5944 19.9273 34.588 19.9611C34.5816 19.9949 34.5751 20.0298 34.5676 20.0647C34.5547 20.1367 34.5408 20.2109 34.5268 20.2883C34.5225 20.3101 34.5193 20.3319 34.515 20.3548C34.1896 20.3778 33.8911 20.4236 33.6248 20.4792C33.6355 20.4181 33.6452 20.3581 33.6548 20.2981C34.0887 19.5389 34.5214 18.7797 34.9553 18.0205Z" fill="#C69147"/>
<path d="M46.5475 34.1202H46.0983C45.2 31.908 44.3017 29.697 43.4023 27.4849C42.504 29.697 41.6046 31.908 40.7062 34.1202H40.2571C41.3055 31.5732 42.3528 29.0272 43.4012 26.4813C44.4507 29.0272 45.4991 31.5732 46.5475 34.1202Z" fill="url(#paint10_linear_366_10473)"/>
<path d="M46.5855 34.554C46.1266 35.7549 44.8933 36.5796 43.5034 36.6221C43.4697 36.6232 43.436 36.621 43.4022 36.621C43.3685 36.621 43.3359 36.6232 43.3011 36.6221C41.9123 36.5796 40.679 35.7549 40.219 34.554C41.2804 34.5507 42.3408 34.5485 43.4022 34.5463C44.4637 34.5485 45.5251 34.5507 46.5855 34.554Z" fill="url(#paint11_linear_366_10473)"/>
<path d="M23.7101 34.1202H23.2609C22.3626 31.908 21.4643 29.697 20.5649 27.4849C19.6666 29.697 18.7672 31.908 17.8688 34.1202H17.4197C18.4681 31.5732 19.5154 29.0272 20.5638 26.4813C21.6122 29.0272 22.6617 31.5732 23.7101 34.1202Z" fill="url(#paint12_linear_366_10473)"/>
<path d="M23.7471 34.554C23.2882 35.7549 22.0549 36.5796 20.665 36.6221C20.6313 36.6232 20.5976 36.621 20.5639 36.621C20.5302 36.621 20.4975 36.6232 20.4627 36.6221C19.0739 36.5796 17.8396 35.7549 17.3806 34.554C18.4421 34.5507 19.5024 34.5485 20.5639 34.5463C21.6253 34.5485 22.6868 34.5507 23.7471 34.554Z" fill="url(#paint13_linear_366_10473)"/>
<path d="M29.9487 22.2021C29.567 22.176 28.9471 22.0568 28.5067 22.0994C28.2753 22.1223 28.0425 21.927 27.7031 22.0175C27.6972 21.9215 27.542 20.333 27.5361 20.236C28.1821 20.1116 28.8281 19.9873 29.474 19.8618C29.474 19.8651 29.5215 19.8586 29.5215 19.8618C29.5532 20.0222 29.917 22.0342 29.9487 22.2021Z" fill="#E2BA7E"/>
<g filter="url(#filter1_dd_366_10473)">
<path d="M16.4672 49.4714C16.4835 50.2666 16.4998 51.0619 16.5162 51.8572H21.8473C22.5259 51.1944 23.2057 50.5329 23.8854 49.8701C23.8886 50.5317 23.893 51.1944 23.8963 51.8572H26.0942C26.7761 50.6083 27.5831 48.9755 28.3422 46.9953C28.4009 46.8445 28.4585 46.6925 28.5151 46.5371C28.5662 46.4 28.6173 46.2606 28.6673 46.1189C28.8892 45.4973 29.1426 44.7398 29.3993 43.86C29.4003 43.8588 29.4003 43.8577 29.4003 43.8577C29.5037 43.5035 29.607 43.1298 29.7092 42.7379C29.7255 42.6774 29.7418 42.6157 29.7571 42.5528C30.1692 40.9451 30.5542 39.0278 30.7957 36.8569C30.7978 36.834 30.8011 36.8112 30.8033 36.7872C30.8065 36.7677 30.8087 36.7483 30.8098 36.7289C30.812 36.7095 30.8142 36.69 30.8163 36.6695C30.9414 35.4983 31.0241 34.2551 31.0458 32.9468V32.908C31.0469 32.8463 31.048 32.7846 31.048 32.7217C31.0491 32.6577 31.0491 32.5926 31.0491 32.5263V32.4921C31.061 30.4845 30.9294 27.9136 30.4042 24.9668C30.4042 24.9645 30.4042 24.9633 30.4031 24.9622C30.3269 24.4012 30.2454 23.8093 30.1584 23.1809C30.0648 22.5067 30.0899 22.5241 29.9972 22.1174C29.9046 21.7107 29.755 21.1869 29.755 21.1869C29.755 21.1869 29.7964 21.8972 29.8183 22.1174C29.8402 22.3376 30.0094 25.5735 29.557 29.0722C29.3601 30.5976 28.9555 33.7249 27.8375 36.8352V36.8363C27.6777 37.2808 27.5026 37.7253 27.3123 38.164C24.6097 44.3959 19.433 47.8591 16.4672 49.4714Z" fill="url(#paint14_linear_366_10473)"/>
</g>
<g filter="url(#filter2_dd_366_10473)">
<path d="M47.5328 49.4713C47.5165 50.2666 47.5002 51.0619 47.4838 51.8571H42.1527C41.4741 51.1944 40.7943 50.5329 40.1146 49.8701C40.1114 50.5317 40.107 51.1944 40.1037 51.8571H37.9058C37.2239 50.6083 36.4169 48.9755 35.6578 46.9953C35.5991 46.8445 35.5415 46.6925 35.4849 46.5371C35.4338 46.4 35.3827 46.2606 35.3327 46.1189C35.1108 45.4973 34.8574 44.7398 34.6007 43.8599C34.5997 43.8588 34.5997 43.8577 34.5997 43.8577C34.4963 43.5035 34.393 43.1298 34.2908 42.7379C34.2745 42.6773 34.2582 42.6156 34.2429 42.5528C33.8308 40.9451 33.4458 39.0278 33.2043 36.8568C33.2022 36.834 33.1989 36.8111 33.1967 36.7871C33.1935 36.7677 33.1913 36.7483 33.1902 36.7289C33.188 36.7094 33.1858 36.69 33.1837 36.6695C33.0586 35.4983 32.9759 34.2551 32.9542 32.9468V32.908C32.9531 32.8462 32.952 32.7846 32.952 32.7217C32.9509 32.6577 32.9509 32.5926 32.9509 32.5263V32.492C32.939 30.4845 33.0706 27.9136 33.5958 24.9667C33.5958 24.9645 33.5958 24.9633 33.5969 24.9622C33.6731 24.4012 33.7546 23.8093 33.8416 23.1808C33.9352 22.5067 34.0653 21.7742 34.1596 21.4845C34.2538 21.1948 34.151 21.4814 34.2222 21.2895C34.2933 21.0975 34.249 21.09 34.2695 21.6191C34.2227 22.7297 33.9906 25.5735 34.443 29.0722C34.6399 30.5976 35.0445 33.7249 36.1625 36.8351V36.8363C36.3223 37.2808 36.4974 37.7252 36.6877 38.164C39.3903 44.3958 44.567 47.8591 47.5328 49.4713Z" fill="url(#paint15_linear_366_10473)"/>
</g>
<g filter="url(#filter3_d_366_10473)">
<path d="M44.4006 24.9793C44.3484 25.2225 44.2288 25.576 43.9275 25.8312C43.648 26.0668 43.1727 26.2533 41.8046 25.9948C40.8313 25.8105 40.3712 25.5847 39.5349 25.3065C38.7812 25.0567 37.5773 24.6575 36.2733 24.5921C36.2483 24.5899 36.2222 24.5888 36.1972 24.5877C35.7067 24.567 35.0259 24.5877 34.2016 24.771C34.1918 24.772 34.1831 24.7742 34.1733 24.7764C33.8884 24.8408 33.5871 24.9248 33.2695 25.0327C33.2336 25.0447 33.1978 25.0567 33.1619 25.0698C33.0897 25.103 33.1865 25.0698 33.0396 25.1145C33.1145 24.6554 33.1619 24.1808 33.1619 24.1808C33.1619 24.1797 33.1619 24.1819 33.1619 24.1808C33.1619 23.8207 33.1197 23.5013 33.0022 23.1926C33.1588 23.149 33.3826 23.1653 33.5751 23.126C33.8448 23.0704 34.1472 23.0246 34.4767 23.0017C34.4767 23.0017 34.4767 23.0017 34.4778 23.0017C34.4789 23.0006 34.4789 23.0006 34.48 23.0017C34.8334 22.9755 35.2184 22.9766 35.6263 23.0191C35.8416 23.0409 36.0341 23.0726 36.3484 23.1631C36.7986 23.294 37.5001 23.5471 38.8726 24.075C41.0281 24.9029 41.5643 25.1495 42.5104 25.1909C43.3174 25.2258 43.9808 25.0916 44.4006 24.9793Z" fill="url(#paint16_linear_366_10473)"/>
</g>
<g filter="url(#filter4_d_366_10473)">
<path d="M19.5218 24.9793C19.574 25.2225 19.6936 25.576 19.9949 25.8312C20.2744 26.0668 20.7496 26.2533 22.1177 25.9948C23.0911 25.8105 23.5511 25.5847 24.3875 25.3065C25.1411 25.0567 26.3451 24.6575 27.649 24.5921C27.674 24.5899 27.7001 24.5888 27.7251 24.5877C28.2156 24.567 28.8964 24.5877 29.7208 24.771C29.7306 24.772 29.7393 24.7742 29.7491 24.7764C30.034 24.8408 30.3353 24.9248 30.6528 25.0327C30.6887 25.0447 30.7246 25.0567 30.7605 25.0698C30.8327 25.103 30.7359 25.0698 30.8828 25.1145C30.8079 24.6554 30.7605 24.1808 30.7605 24.1808C30.7605 24.1797 30.7605 24.1819 30.7605 24.1808C30.7605 23.8207 30.8027 23.5013 30.9202 23.1926C30.7636 23.149 30.5397 23.1653 30.3472 23.126C30.0775 23.0704 29.7752 23.0246 29.4456 23.0017C29.4456 23.0017 29.4457 23.0017 29.4446 23.0017C29.4435 23.0006 29.4435 23.0006 29.4424 23.0017C29.0889 22.9755 28.7039 22.9766 28.2961 23.0191C28.0808 23.0409 27.8883 23.0726 27.574 23.1631C27.1237 23.294 26.4223 23.5471 25.0498 24.075C22.8943 24.9029 22.3581 25.1495 21.4119 25.1909C20.605 25.2258 19.9416 25.0916 19.5218 24.9793Z" fill="url(#paint17_linear_366_10473)"/>
</g>
<path d="M36.4202 20.2221C36.4147 20.3192 36.4029 20.4273 36.3974 20.5233C36.0831 20.4327 35.8743 20.3942 35.659 20.3724C35.2512 20.3298 34.7336 20.3462 34.3801 20.3724C34.4041 20.2393 34.4337 20.0791 34.4565 19.9504C34.463 19.9165 34.4789 19.8671 34.4843 19.8343C34.4843 19.8311 34.603 19.8564 34.603 19.8531C35.2011 19.9786 35.822 20.0977 36.4202 20.2221Z" fill="#E6BF84"/>
<rect x="31.1057" y="40.1981" width="0.419757" height="11.659" fill="url(#paint18_linear_366_10473)"/>
<rect x="32.4316" y="39.8581" width="0.391175" height="11.9991" fill="url(#paint19_linear_366_10473)"/>
<defs>
<filter id="filter0_d_366_10473" x="30.2469" y="22.7829" width="3.42922" height="3.43572" filterUnits="userSpaceOnUse" color-interpolation-filters="sRGB">
<feFlood flood-opacity="0" result="BackgroundImageFix"/>
<feColorMatrix in="SourceAlpha" type="matrix" values="0 0 0 0 0 0 0 0 0 0 0 0 0 0 0 0 0 0 127 0" result="hardAlpha"/>
<feOffset/>
<feGaussianBlur stdDeviation="0.205023"/>
<feComposite in2="hardAlpha" operator="out"/>
<feColorMatrix type="matrix" values="0 0 0 0 0 0 0 0 0 0 0 0 0 0 0 0 0 0 0.15 0"/>
<feBlend mode="normal" in2="BackgroundImageFix" result="effect1_dropShadow_366_10473"/>
<feBlend mode="normal" in="SourceGraphic" in2="effect1_dropShadow_366_10473" result="shape"/>
</filter>
<filter id="filter1_dd_366_10473" x="16.0572" y="19.1367" width="15.4026" height="32.9255" filterUnits="userSpaceOnUse" color-interpolation-filters="sRGB">
<feFlood flood-opacity="0" result="BackgroundImageFix"/>
<feColorMatrix in="SourceAlpha" type="matrix" values="0 0 0 0 0 0 0 0 0 0 0 0 0 0 0 0 0 0 127 0" result="hardAlpha"/>
<feOffset dy="-1.64018"/>
<feGaussianBlur stdDeviation="0.205023"/>
<feComposite in2="hardAlpha" operator="out"/>
<feColorMatrix type="matrix" values="0 0 0 0 0 0 0 0 0 0 0 0 0 0 0 0 0 0 0.12 0"/>
<feBlend mode="normal" in2="BackgroundImageFix" result="effect1_dropShadow_366_10473"/>
<feColorMatrix in="SourceAlpha" type="matrix" values="0 0 0 0 0 0 0 0 0 0 0 0 0 0 0 0 0 0 127 0" result="hardAlpha"/>
<feOffset dy="-0.205023"/>
<feGaussianBlur stdDeviation="0.205023"/>
<feComposite in2="hardAlpha" operator="out"/>
<feColorMatrix type="matrix" values="0 0 0 0 0 0 0 0 0 0 0 0 0 0 0 0 0 0 0.2 0"/>
<feBlend mode="normal" in2="effect1_dropShadow_366_10473" result="effect2_dropShadow_366_10473"/>
<feBlend mode="normal" in="SourceGraphic" in2="effect2_dropShadow_366_10473" result="shape"/>
</filter>
<filter id="filter2_dd_366_10473" x="32.5401" y="19.1196" width="15.4026" height="32.9425" filterUnits="userSpaceOnUse" color-interpolation-filters="sRGB">
<feFlood flood-opacity="0" result="BackgroundImageFix"/>
<feColorMatrix in="SourceAlpha" type="matrix" values="0 0 0 0 0 0 0 0 0 0 0 0 0 0 0 0 0 0 127 0" result="hardAlpha"/>
<feOffset dy="-1.64018"/>
<feGaussianBlur stdDeviation="0.205023"/>
<feComposite in2="hardAlpha" operator="out"/>
<feColorMatrix type="matrix" values="0 0 0 0 0 0 0 0 0 0 0 0 0 0 0 0 0 0 0.12 0"/>
<feBlend mode="normal" in2="BackgroundImageFix" result="effect1_dropShadow_366_10473"/>
<feColorMatrix in="SourceAlpha" type="matrix" values="0 0 0 0 0 0 0 0 0 0 0 0 0 0 0 0 0 0 127 0" result="hardAlpha"/>
<feOffset dy="-0.205023"/>
<feGaussianBlur stdDeviation="0.205023"/>
<feComposite in2="hardAlpha" operator="out"/>
<feColorMatrix type="matrix" values="0 0 0 0 0 0 0 0 0 0 0 0 0 0 0 0 0 0 0.2 0"/>
<feBlend mode="normal" in2="effect1_dropShadow_366_10473" result="effect2_dropShadow_366_10473"/>
<feBlend mode="normal" in="SourceGraphic" in2="effect2_dropShadow_366_10473" result="shape"/>
</filter>
<filter id="filter3_d_366_10473" x="32.3871" y="22.6766" width="12.6286" height="4.36573" filterUnits="userSpaceOnUse" color-interpolation-filters="sRGB">
<feFlood flood-opacity="0" result="BackgroundImageFix"/>
<feColorMatrix in="SourceAlpha" type="matrix" values="0 0 0 0 0 0 0 0 0 0 0 0 0 0 0 0 0 0 127 0" result="hardAlpha"/>
<feOffset dy="0.307534"/>
<feGaussianBlur stdDeviation="0.307534"/>
<feComposite in2="hardAlpha" operator="out"/>
<feColorMatrix type="matrix" values="0 0 0 0 0 0 0 0 0 0 0 0 0 0 0 0 0 0 0.18 0"/>
<feBlend mode="normal" in2="BackgroundImageFix" result="effect1_dropShadow_366_10473"/>
<feBlend mode="normal" in="SourceGraphic" in2="effect1_dropShadow_366_10473" result="shape"/>
</filter>
<filter id="filter4_d_366_10473" x="18.9067" y="22.6766" width="12.6286" height="4.36573" filterUnits="userSpaceOnUse" color-interpolation-filters="sRGB">
<feFlood flood-opacity="0" result="BackgroundImageFix"/>
<feColorMatrix in="SourceAlpha" type="matrix" values="0 0 0 0 0 0 0 0 0 0 0 0 0 0 0 0 0 0 127 0" result="hardAlpha"/>
<feOffset dy="0.307534"/>
<feGaussianBlur stdDeviation="0.307534"/>
<feComposite in2="hardAlpha" operator="out"/>
<feColorMatrix type="matrix" values="0 0 0 0 0 0 0 0 0 0 0 0 0 0 0 0 0 0 0.18 0"/>
<feBlend mode="normal" in2="BackgroundImageFix" result="effect1_dropShadow_366_10473"/>
<feBlend mode="normal" in="SourceGraphic" in2="effect1_dropShadow_366_10473" result="shape"/>
</filter>
<radialGradient id="paint0_radial_366_10473" cx="0" cy="0" r="1" gradientUnits="userSpaceOnUse" gradientTransform="translate(8.50091e-07 6.5384) rotate(23.7296) scale(69.9106 127.184)">
<stop stop-color="#0B2036"/>
<stop offset="1" stop-color="#04172D"/>
</radialGradient>
<radialGradient id="paint1_radial_366_10473" cx="0" cy="0" r="1" gradientUnits="userSpaceOnUse" gradientTransform="translate(31.9616 24.5008) rotate(90) scale(1.30781 1.30458)">
<stop stop-color="#E3BB7F"/>
<stop offset="1" stop-color="#D1A25A"/>
</radialGradient>
<linearGradient id="paint2_linear_366_10473" x1="33.2778" y1="22.0618" x2="33.2778" y2="40.4088" gradientUnits="userSpaceOnUse">
<stop stop-color="#C38F47"/>
<stop offset="1" stop-color="#B48037"/>
</linearGradient>
<linearGradient id="paint3_linear_366_10473" x1="33.5186" y1="41.9242" x2="33.5186" y2="51.8572" gradientUnits="userSpaceOnUse">
<stop stop-color="#D0A159"/>
<stop offset="1" stop-color="#E4BC80"/>
</linearGradient>
<linearGradient id="paint4_linear_366_10473" x1="30.4119" y1="41.8323" x2="30.4119" y2="51.8572" gradientUnits="userSpaceOnUse">
<stop stop-color="#D0A159"/>
<stop offset="1" stop-color="#E4BC80"/>
</linearGradient>
<linearGradient id="paint5_linear_366_10473" x1="35.1135" y1="42.7244" x2="35.1135" y2="50.5016" gradientUnits="userSpaceOnUse">
<stop stop-color="#B48037"/>
<stop offset="1" stop-color="#C38F47"/>
</linearGradient>
<linearGradient id="paint6_linear_366_10473" x1="34.8949" y1="21.7449" x2="34.8231" y2="31.507" gradientUnits="userSpaceOnUse">
<stop stop-color="#E6BF84"/>
<stop offset="1" stop-color="#D0A25D"/>
</linearGradient>
<linearGradient id="paint7_linear_366_10473" x1="30.6538" y1="22.0618" x2="30.6538" y2="40.5263" gradientUnits="userSpaceOnUse">
<stop stop-color="#C38F47"/>
<stop offset="1" stop-color="#B48037"/>
</linearGradient>
<linearGradient id="paint8_linear_366_10473" x1="29.2056" y1="21.03" x2="28.3143" y2="29.9093" gradientUnits="userSpaceOnUse">
<stop stop-color="#E6BF84"/>
<stop offset="1" stop-color="#D0A25D"/>
</linearGradient>
<linearGradient id="paint9_linear_366_10473" x1="28.7882" y1="44.2227" x2="28.7882" y2="50.7239" gradientUnits="userSpaceOnUse">
<stop stop-color="#B48037"/>
<stop offset="1" stop-color="#C38F47"/>
</linearGradient>
<linearGradient id="paint10_linear_366_10473" x1="40.2571" y1="30.3008" x2="46.5475" y2="30.3008" gradientUnits="userSpaceOnUse">
<stop stop-color="#E7C083"/>
<stop offset="1" stop-color="#D2A45D"/>
</linearGradient>
<linearGradient id="paint11_linear_366_10473" x1="40.219" y1="35.5844" x2="46.5855" y2="35.5844" gradientUnits="userSpaceOnUse">
<stop stop-color="#E7C083"/>
<stop offset="1" stop-color="#D2A45D"/>
</linearGradient>
<linearGradient id="paint12_linear_366_10473" x1="17.4197" y1="30.3008" x2="23.7101" y2="30.3008" gradientUnits="userSpaceOnUse">
<stop stop-color="#D3A55F"/>
<stop offset="1" stop-color="#E7BF80"/>
</linearGradient>
<linearGradient id="paint13_linear_366_10473" x1="17.3806" y1="35.5844" x2="23.7471" y2="35.5844" gradientUnits="userSpaceOnUse">
<stop stop-color="#D3A55F"/>
<stop offset="1" stop-color="#E7BF80"/>
</linearGradient>
<linearGradient id="paint14_linear_366_10473" x1="29.7912" y1="18.6233" x2="20.6066" y2="51.6571" gradientUnits="userSpaceOnUse">
<stop stop-color="#E5BF86"/>
<stop offset="1" stop-color="#D0A159"/>
</linearGradient>
<linearGradient id="paint15_linear_366_10473" x1="34.2088" y1="18.5074" x2="43.453" y2="51.6398" gradientUnits="userSpaceOnUse">
<stop stop-color="#E5BF86"/>
<stop offset="1" stop-color="#D0A159"/>
</linearGradient>
<linearGradient id="paint16_linear_366_10473" x1="33.0022" y1="24.552" x2="35.0071" y2="29.4588" gradientUnits="userSpaceOnUse">
<stop stop-color="#D6AC6E"/>
<stop offset="1" stop-color="#DEB36D"/>
</linearGradient>
<linearGradient id="paint17_linear_366_10473" x1="30.9202" y1="24.552" x2="28.9152" y2="29.4588" gradientUnits="userSpaceOnUse">
<stop stop-color="#D6AC6E"/>
<stop offset="1" stop-color="#DEB36D"/>
</linearGradient>
<linearGradient id="paint18_linear_366_10473" x1="31.3156" y1="43.9445" x2="31.3156" y2="51.8572" gradientUnits="userSpaceOnUse">
<stop stop-color="#D0A159"/>
<stop offset="1" stop-color="#E4BC80"/>
</linearGradient>
<linearGradient id="paint19_linear_366_10473" x1="32.6272" y1="43.7138" x2="32.6272" y2="51.8572" gradientUnits="userSpaceOnUse">
<stop stop-color="#D0A159"/>
<stop offset="1" stop-color="#E4BC80"/>
</linearGradient>
<clipPath id="clip0_366_10473">
<rect width="64" height="64" rx="21.8763" fill="white"/>
</clipPath>
<clipPath id="clip1_366_10473">
<rect width="0.909957" height="10.1151" fill="white" transform="translate(31.5076 22.3409)"/>
</clipPath>
<clipPath id="clip2_366_10473">
<rect width="2.72987" height="11.4142" fill="white" transform="translate(30.5974 12.1428)"/>
</clipPath>
</defs>
</svg>
